<svg xmlns="http://www.w3.org/2000/svg" width="480" height="480" viewBox="0 0 48 48"><path fill="#9fdadf" d="M17.26,12.68c-0.48,0-1.64,1.97-2.45,2.72c-0.87,0.82-1.91,1.86-2.62,2.87 c-0.16-0.15-0.31-0.29-0.47-0.41c-0.75-0.56-1.52-0.73-2.25-0.68c-0.2,0.01-0.4,0.04-0.59,0.08c0.69-1.6,2.26-3.23,3.47-4.42 c0.35-0.34,0.73-0.63,1.13-0.91c0.46-0.32,1.47-1.84,1.98-2.1l0.27,0.42l1.25,1.98L17.26,12.68z"/><path fill="#9fdadf" d="M38.66,15.81c-0.19-0.02-0.37-0.03-0.54-0.02c-0.97,0.02-1.72,0.27-2.3,0.64 c-0.15,0.09-0.28,0.19-0.4,0.3c-1.27-2.17-3.54-4.34-5.75-5.44c0,0,0.02-0.19,0.03-0.5c0.05-0.85,0.09-2.58-0.21-3.69 c-0.1-0.38-0.24-0.68-0.43-0.86c1.14,0.62,2.89,2.23,4.03,2.85c0.96,0.53,1.32,1.08,2.17,1.75C36.71,11.97,38,14.03,38.66,15.81z"/><path fill="#9fdadf" d="M11.83,31.081c0.72,0.584,1.419,1.382,2.139,1.966c0.7,0.568,1.804,1.335,2.695,1.469L15.203,37.5 c-0.817-0.198-1.81-0.915-2.471-1.433c-1.39-1.089-2.72-2.283-3.732-3.73L11.83,31.081z"/><path fill="#9fdadf" d="M38.11,30.82c-0.31,2.32-2.14,4.11-3.92,5.63c-1.27,1.09-2.69,2.19-4.36,2.26c0,0,0.02-0.2,0.03-0.5 c0.01-0.05,0.01-0.1,0.01-0.16c0.02-0.39,0.04-0.91,0-1.39c0-0.04,0-0.08-0.01-0.12c-0.02-0.24-0.05-0.46-0.1-0.65 c-0.04-0.15-0.1-0.28-0.17-0.38c0,0,0,0-0.01-0.01c-0.05-0.07-0.11-0.11-0.18-0.13c0.04,0.01,0.09,0.02,0.13,0.01 c0.32,0.06,0.65-0.07,0.96-0.19c0.86-0.36,1.72-0.78,2.44-1.39c0.51-0.44,0.94-0.97,1.36-1.5c0.49-0.61,1.09-1.98,1.38-2.7 l0.45,0.22l1.55,0.78L38.11,30.82z"/><path fill="#71c598" d="M28.001,5.089c-1.892-1.589-4.057-2.805-6.499-2.433s-4.652,2.029-5.695,4.269 c-0.291,0.625-0.497,1.307-0.455,1.995c0.068,1.115,0.765,2.081,1.47,2.947c0.527,0.649,1.082,1.289,1.771,1.762 c1.143,0.785,2.534,1.595,3.909,1.775c1.369,0.18,2.836-0.259,4.106-0.799c1.378-0.586,2.361-1.871,2.924-3.259 c0.338-0.835,0.548-1.737,0.477-2.634C29.894,7.265,29.113,6.023,28.001,5.089z"/><path fill="#f58420" d="M14.42,20.542c-1.461-2.706-4.2-3.857-7.17-3.06c-0.502,0.135-2.561,0.774-3,1.052 c-0.464,0.295-1.386,1.585-1.75,1.997c-1.506,1.708-1.825,2.512-1.927,4.786s2.025,5.187,4.013,6.296 c1.104,0.616,2.412,0.807,3.671,0.692c2.751-0.25,4.989-1.927,6.227-4.396S15.865,22.895,14.42,20.542z"/><path fill="#73a1b2" d="M28.608,33.916c-0.496-0.892-1.16-1.492-2.125-1.825c-0.965-0.333-1.997-0.402-3.016-0.468 c-1.18-0.076-2.395-0.149-3.516,0.228c-1.22,0.41-2.212,1.319-3.02,2.321c-0.584,0.725-1.097,1.52-1.406,2.398 c-0.853,2.42,0.047,5.607,2.025,7.242s4.873,2,7.262,1.063s4.227-3.384,4.956-5.844c0.407-1.374,0.449-2.981-0.424-4.119 C29.06,34.541,28.835,34.325,28.608,33.916z"/><path fill="#febf10" d="M44.899,17.368c-1.445-1.247-2.775-1.373-4.661-1.663s-3.909,0.105-5.43,1.26 c-2.245,1.704-2.701,4.928-1.932,7.639c0.538,1.897,1.412,3.558,3.071,4.624s3.713,1.502,5.662,1.202 c0.536-0.082,1.067-0.219,1.555-0.457c1.174-0.572,1.999-1.676,2.627-2.821c1.35-2.463,2.472-4.795,1.285-7.34 C46.609,18.813,45.797,18.007,44.899,17.368z"/><path fill="#38b47b" d="M35.896,28.958c0.072-0.544,0.575-1.229,0.916-1.66c0.526-0.664,1.093-1.312,1.801-1.778 s1.578-0.737,2.411-0.581c1.132,0.211,1.974,1.133,2.728,2.003c0.318,0.366,0.844,0.905,0.977,1.371 C44.729,28.313,41.604,32.646,35.896,28.958z"/><path fill="#16b7b8" d="M26.076,20.063c-0.924-0.379-1.452-0.494-2.451-0.531c-0.725-0.027-1.823,0.369-2.416,0.789 c-0.39,0.276-0.642,0.705-0.844,1.137c-0.523,1.118-0.786,2.424-0.384,3.591c0.111,0.321,0.271,0.627,0.496,0.882 c0.238,0.27,0.54,0.475,0.856,0.647c1.42,0.77,3.372,1.002,4.868,0.391c0.517-0.211,1.273-0.642,1.579-1.11 c0.228-0.349,0.332-0.764,0.404-1.175c0.176-1.005,0.171-2.084-0.288-2.995C27.438,20.776,27.02,20.45,26.076,20.063z"/><path fill="#010101" d="M24.288,27.819c-1.084,0-2.214-0.272-3.192-0.803c-0.43-0.233-0.746-0.474-0.994-0.757 c-0.252-0.286-0.452-0.64-0.593-1.049c-0.397-1.152-0.254-2.561,0.403-3.966c0.202-0.431,0.499-0.973,1.009-1.333 c0.647-0.459,1.832-0.91,2.724-0.881c1.054,0.039,1.642,0.167,2.621,0.568c0,0,0,0,0,0c0.974,0.4,1.534,0.781,2.078,1.863 c0.448,0.892,0.561,2.004,0.333,3.306c-0.075,0.426-0.189,0.921-0.479,1.363c-0.369,0.564-1.205,1.053-1.808,1.299 C25.752,27.691,25.031,27.819,24.288,27.819z M23.552,20.03c-0.575,0-1.517,0.317-2.054,0.698c-0.319,0.226-0.531,0.621-0.68,0.94 c-0.547,1.169-0.676,2.311-0.364,3.216c0.099,0.286,0.233,0.526,0.398,0.714c0.169,0.193,0.397,0.364,0.72,0.539 c1.373,0.744,3.157,0.89,4.44,0.367c0.507-0.207,1.133-0.589,1.349-0.92c0.189-0.29,0.273-0.662,0.33-0.988 c0.189-1.086,0.108-1.988-0.242-2.685c-0.407-0.81-0.731-1.045-1.563-1.387l0,0c-0.873-0.358-1.342-0.46-2.28-0.494 C23.589,20.03,23.57,20.03,23.552,20.03z"/><path fill="#c56528" d="M18.625,13.275c0.78-1.329,2.413-1.887,3.939-2.101c0.473-0.066,0.951-0.109,1.427-0.069 c1.351,0.113,3.096,1.484,3.743,2.676C26.922,14.831,22.506,16.89,18.625,13.275z"/><path fill="#fcbf95" d="M22.794,5.764c-0.47,0-0.734,0.085-1.162,0.28c-0.427,0.196-0.795,0.572-0.875,1.035 c-0.108,0.623-0.053,1.157,0.337,1.655c0.168,0.215,0.7,0.483,0.932,0.626c0.553,0.342,1.287,0.164,1.845-0.171 c0.392-0.236,0.754-0.562,0.908-0.993c0.283-0.794-0.242-1.685-0.954-2.136C23.453,5.825,23.231,5.714,22.794,5.764z"/><path fill="#010101" d="M22.717,10.046c-0.348,0-0.674-0.086-0.955-0.26l-0.192-0.112c-0.386-0.221-0.696-0.408-0.871-0.631 c-0.581-0.742-0.527-1.525-0.436-2.049C20.367,6.4,20.8,5.876,21.423,5.59c0.465-0.213,0.803-0.322,1.342-0.326 c0.591-0.058,0.922,0.118,1.328,0.376c0.862,0.547,1.537,1.659,1.156,2.726c-0.175,0.49-0.552,0.911-1.121,1.253 C23.655,9.902,23.168,10.046,22.717,10.046z M22.986,6.252c-0.041,0-0.086,0.003-0.136,0.009c-0.402,0.036-0.605,0.053-1.01,0.238 c-0.313,0.144-0.545,0.405-0.59,0.665c-0.097,0.558-0.027,0.923,0.238,1.263c0.077,0.091,0.43,0.293,0.581,0.38l0.222,0.13 c0.374,0.23,0.93,0.06,1.323-0.176c0.251-0.15,0.576-0.4,0.694-0.731c0.194-0.546-0.229-1.215-0.75-1.546 C23.289,6.313,23.17,6.252,22.986,6.252z"/><path fill="#4b7bb2" d="M12.301,30.662c-0.227-0.891-1.245-2.309-1.6-2.57c-0.861-0.632-1.533-0.761-2.574-0.655 c-1.251,0.128-1.437,0.087-2.231,0.854c-0.424,0.409-1.958,1.627-2.333,2.443C3.563,30.734,7.888,33.693,12.301,30.662z"/><path fill="#fcbf95" d="M7.191,21.748c-0.725,0.366-1.409,1.646-1.28,2.448c0.12,0.741,0.767,1.063,1.213,1.267 c0.17,0.078,0.995,0.302,1.953-0.046c0.994-0.362,1.523-1.632,1.172-2.63C9.898,21.789,8.136,21.271,7.191,21.748z"/><path fill="#010101" d="M8.004,26.107c-0.525,0-0.925-0.115-1.088-0.19c-0.432-0.197-1.332-0.608-1.498-1.641 c-0.162-1.005,0.619-2.506,1.548-2.975h0c0.632-0.32,1.538-0.313,2.36,0.021c0.705,0.283,1.2,0.744,1.395,1.299 c0.454,1.29-0.234,2.815-1.473,3.266C8.797,26.051,8.37,26.107,8.004,26.107z M7.417,22.194c-0.537,0.271-1.104,1.349-1.012,1.922 c0.075,0.466,0.5,0.696,0.928,0.892c0.006,0.004,0.699,0.258,1.574-0.061c0.717-0.261,1.141-1.229,0.871-1.994 c-0.095-0.271-0.404-0.534-0.825-0.703C8.405,22.029,7.788,22.007,7.417,22.194L7.417,22.194z"/><path fill="#f58420" d="M26.563,43.769c-0.105-0.984-1.007-2.532-1.917-2.92c-0.644-0.275-1.617-0.428-2.317-0.447 c-0.529-0.014-1.081-0.025-1.561,0.198c-0.243,0.113-0.456,0.28-0.657,0.457c-0.764,0.671-1.393,1.797-1.836,2.712 C18.274,43.769,21.604,47.382,26.563,43.769z"/><path fill="#febf10" d="M21.241,34.952c-0.829,0.658-0.886,1.979-0.528,2.566c0.502,0.825,1.55,1.173,2.487,1.036 c0.92-0.135,1.856-0.834,1.88-1.79c0.012-0.487-0.215-0.953-0.523-1.323C23.912,34.67,22.349,34.073,21.241,34.952z"/><path fill="#010101" d="M22.792,39.084c-1.042,0-2.011-0.492-2.506-1.306c-0.514-0.844-0.345-2.434,0.644-3.218l0,0 c1.373-1.088,3.242-0.36,4.01,0.561c0.426,0.512,0.653,1.1,0.64,1.656c-0.032,1.261-1.213,2.111-2.308,2.272 C23.111,39.073,22.951,39.084,22.792,39.084z M22.525,35.012c-0.335,0-0.673,0.094-0.973,0.332c0,0,0,0,0,0 c-0.625,0.496-0.641,1.538-0.411,1.915c0.359,0.59,1.178,0.925,1.987,0.801c0.7-0.103,1.435-0.619,1.453-1.308 c0.008-0.313-0.137-0.666-0.407-0.99C23.871,35.4,23.205,35.012,22.525,35.012z M21.241,34.952h0.01H21.241z"/><path fill="#c56528" d="M41.147,19.477c-0.574-0.414-1.479-0.55-2.172-0.405c-0.693,0.145-1.313,0.686-1.458,1.379 c-0.118,0.564,0.072,1.142,0.26,1.687c0.06,0.173,0.132,0.363,0.294,0.449c0.149,0.079,1.117,0.402,1.436,0.557 c0.872,0.421,1.935-0.238,2.388-1.094c0.238-0.45,0.37-0.971,0.288-1.474C42.102,20.072,41.617,19.674,41.147,19.477z"/><path fill="#010101" d="M40.088,23.775c-0.268,0-0.537-0.057-0.798-0.183c-0.167-0.081-0.523-0.209-0.831-0.321 c-0.293-0.107-0.548-0.204-0.623-0.244c-0.345-0.183-0.467-0.537-0.533-0.728c-0.19-0.552-0.426-1.237-0.276-1.952 c0.181-0.862,0.922-1.572,1.845-1.766c0.855-0.181,1.86,0.006,2.52,0.456c0.556,0.247,1.17,0.752,1.285,1.456 c0.118,0.724-0.12,1.372-0.34,1.789C41.9,23.107,41.007,23.775,40.088,23.775z M39.547,19.515c-0.161,0-0.32,0.015-0.47,0.046 c-0.531,0.111-0.972,0.52-1.071,0.992c-0.093,0.445,0.085,0.964,0.243,1.421c0.014,0.039,0.055,0.158,0.082,0.189 c0.042,0.014,0.244,0.086,0.472,0.169c0.342,0.125,0.736,0.271,0.922,0.36c0.594,0.287,1.388-0.232,1.729-0.878 c0.21-0.396,0.294-0.809,0.237-1.16c-0.042-0.258-0.345-0.552-0.737-0.717c-0.035-0.015-0.068-0.033-0.099-0.056 C40.531,19.648,40.03,19.515,39.547,19.515z"/><path fill="#010101" d="M47.528,19.601c-0.451-0.965-1.231-1.849-2.321-2.626c-1.448-1.242-2.801-1.447-4.513-1.706 l-0.381-0.058c-0.466-0.072-0.931-0.097-1.39-0.091c-0.694-1.638-1.899-3.536-3.353-4.67c-0.31-0.24-0.55-0.47-0.77-0.68 c-0.42-0.39-0.81-0.76-1.47-1.11c-0.53-0.3-1.25-0.85-1.95-1.39c-0.673-0.524-1.368-1.057-1.955-1.395 c-0.308-0.415-0.672-0.808-1.102-1.169c-2.471-2.075-4.663-2.881-6.896-2.544c-2.625,0.399-4.952,2.145-6.072,4.553 c-0.379,0.814-0.543,1.547-0.501,2.236c0.013,0.211,0.05,0.413,0.097,0.612c-0.35,0.237-0.755,0.603-1.15,0.967 c-0.23,0.21-0.44,0.4-0.58,0.51c-1.734,1.353-3.769,3.885-4.655,5.718c-0.579,0.019-1.166,0.082-1.758,0.241 c-0.52,0.14-2.317,0.79-2.855,1.132c-1.439,0.909-4.692,3.47-3.813,7.59c0.465,2.179,1.979,5.09,4.204,6.33 c0.932,0.52,2.034,0.788,3.22,0.788c0.243,0,0.49-0.012,0.739-0.034c0.131-0.012,0.255-0.042,0.384-0.06 c1.133,1.577,2.586,2.814,3.737,3.716c0.933,0.731,1.695,1.187,2.333,1.414c-0.218,2.312,0.72,4.873,2.475,6.323 c1.342,1.109,3.081,1.69,4.85,1.69c0.982,0,1.975-0.18,2.913-0.547c2.354-0.924,4.417-3.345,5.252-6.169 c0.001-0.003,0.001-0.006,0.002-0.008c1.65-0.218,3.065-1.304,4.261-2.334c1.94-1.65,3.77-3.52,4.1-5.94 c0.003-0.026-0.005-0.05-0.006-0.075c0.592,0.123,1.192,0.208,1.795,0.208c0.431,0,0.861-0.032,1.285-0.098 c0.655-0.101,1.21-0.265,1.698-0.502c1.088-0.53,2.02-1.521,2.847-3.03C47.688,24.732,48.792,22.31,47.528,19.601z M30.508,8.675 c-0.026-0.324-0.087-0.641-0.172-0.951c0.145,0.112,0.29,0.223,0.434,0.337c0.73,0.56,1.48,1.14,2.08,1.47 c0.55,0.3,0.88,0.61,1.26,0.97c0.25,0.23,0.51,0.47,0.84,0.73c1.077,0.836,2.19,2.378,2.917,3.969 c-0.836,0.12-1.63,0.375-2.354,0.747c-1.275-1.979-3.269-3.841-5.329-4.943C30.45,10.186,30.566,9.404,30.508,8.675z M16.261,7.137 c0.966-2.077,3.053-3.642,5.316-3.986c0.273-0.041,0.546-0.063,0.82-0.063c1.664,0,3.365,0.771,5.283,2.384 c0.319,0.268,0.665,0.618,0.973,1.041c0.01,0.015,0.018,0.029,0.03,0.043c0.419,0.588,0.758,1.317,0.828,2.198 c0.058,0.73-0.09,1.54-0.442,2.406c-0.207,0.509-0.586,1.263-1.19,1.922c-0.841-1.162-2.458-2.359-3.846-2.475 c-0.568-0.048-1.121,0.013-1.538,0.072c-1.982,0.276-3.37,0.992-4.146,2.117c-0.421-0.379-0.793-0.816-1.14-1.244 c-0.626-0.77-1.299-1.674-1.359-2.662C15.819,8.371,15.954,7.797,16.261,7.137z M27.118,13.745 c-0.218,0.152-0.448,0.292-0.706,0.402c-1.533,0.653-2.792,0.906-3.846,0.764c-1.237-0.162-2.498-0.895-3.418-1.508 c0.755-1.124,2.296-1.566,3.486-1.732c0.366-0.051,0.848-0.102,1.315-0.066C25.045,11.695,26.452,12.771,27.118,13.745z M13.83,11.83c0.16-0.12,0.39-0.33,0.65-0.56c0.255-0.235,0.568-0.518,0.834-0.73c0.306,0.605,0.719,1.151,1.12,1.644 c0.061,0.075,0.128,0.153,0.192,0.23c-0.386,0.259-0.868,0.749-1.606,1.517c-0.27,0.29-0.54,0.57-0.79,0.82 c-0.953,0.935-1.688,1.914-2.262,2.749c-0.711-0.362-1.484-0.597-2.298-0.695C10.521,15.236,12.229,13.079,13.83,11.83z M1.117,25.512c-0.748-3.505,2.108-5.738,3.401-6.556c0.352-0.223,2.026-0.852,2.549-0.991c0.583-0.156,1.163-0.232,1.729-0.232 c2.174,0,4.139,1.112,5.184,3.047c0.004,0.009,0.009,0.017,0.014,0.024c1.276,2.078,1.291,4.394,0.043,6.883 c-0.41,0.817-0.934,1.521-1.538,2.115c-0.421-0.87-1.133-1.842-1.502-2.113c-0.914-0.67-1.704-0.875-2.921-0.748l-0.272,0.026 c-1.107,0.109-1.431,0.171-2.255,0.965c-0.071,0.069-0.173,0.162-0.294,0.272c-0.52,0.475-1.32,1.212-1.789,1.883 C2.256,28.802,1.43,26.978,1.117,25.512z M8.211,31.809c-0.882,0.079-2.186,0.036-3.382-0.631 c-0.214-0.119-0.416-0.263-0.615-0.416c0.367-0.583,1.26-1.403,1.715-1.819c0.129-0.118,0.237-0.217,0.313-0.291 c0.607-0.586,0.687-0.594,1.659-0.688l0.276-0.028c0.971-0.099,1.513,0.036,2.228,0.561c0.207,0.152,0.984,1.184,1.307,1.983 C10.696,31.225,9.506,31.69,8.211,31.809z M14.933,36.877c-0.503-0.211-1.134-0.61-1.893-1.204 c-1.008-0.789-2.245-1.853-3.263-3.158c0.679-0.193,1.32-0.472,1.918-0.833l2.048,1.66c0.599,0.487,1.337,1.058,2.224,1.299 c-0.402,0.596-0.708,1.179-0.914,1.763C15,36.556,14.974,36.719,14.933,36.877z M24.63,44.409 c-1.929,0.757-4.185,0.572-5.915-0.412c0.002-0.005,0.007-0.006,0.01-0.011c0.596-1.228,1.157-2.063,1.717-2.554 c0.155-0.137,0.34-0.288,0.538-0.38c0.385-0.178,0.892-0.161,1.337-0.151c0.604,0.016,1.53,0.15,2.134,0.407 c0.661,0.281,1.402,1.492,1.578,2.319C25.581,43.951,25.113,44.22,24.63,44.409z M29.289,38.889 c-0.463,1.564-1.337,2.984-2.424,4.037c-0.361-1.031-1.157-2.167-2.024-2.537c-0.728-0.31-1.779-0.468-2.499-0.487 c-0.529-0.013-1.187-0.032-1.784,0.244c-0.313,0.145-0.569,0.352-0.778,0.535c-0.641,0.563-1.263,1.471-1.897,2.756 c-0.005-0.004-0.011-0.007-0.016-0.011c-1.836-1.518-2.659-4.456-1.872-6.69c0.256-0.728,0.689-1.463,1.324-2.25 c0.909-1.128,1.822-1.834,2.79-2.16c0.608-0.204,1.256-0.264,1.913-0.264c0.47,0,0.944,0.03,1.412,0.061 c0.97,0.063,1.974,0.127,2.885,0.441c0.774,0.268,1.949,1.302,2.577,2.57C29.503,36.36,29.643,37.693,29.289,38.889z M29.793,34.69 c-0.686-1.388-2.01-2.68-3.147-3.072c-1.039-0.358-2.159-0.431-3.146-0.494c-1.162-0.075-2.479-0.161-3.708,0.254 c-1.134,0.381-2.18,1.176-3.195,2.418c-0.041-0.019-0.081-0.039-0.128-0.046c-0.726-0.109-1.352-0.58-2.096-1.185l-1.823-1.478 c0.001-0.001,0.002-0.002,0.003-0.002c0.039-0.023,0.072-0.051,0.103-0.083c0.916-0.755,1.696-1.713,2.275-2.868 c1.391-2.774,1.364-5.485-0.078-7.842c-0.509-0.938-1.213-1.692-2.029-2.275c0.541-0.788,1.226-1.702,2.106-2.557 c0.25-0.25,0.53-0.54,0.81-0.84c0.49-0.51,1.31-1.36,1.51-1.44h0.01c0.014,0,0.025-0.007,0.039-0.008 c0.305,0.314,0.639,0.615,1.011,0.871c1.017,0.699,2.551,1.652,4.127,1.859c0.23,0.03,0.466,0.045,0.709,0.045 c1.067,0,2.272-0.291,3.658-0.881c1.257-0.534,2.31-1.638,3.007-3.122c1.876,1.023,3.691,2.709,4.857,4.513 c-0.053,0.038-0.111,0.07-0.163,0.11c-2.518,1.912-2.875,5.483-2.111,8.175c0.6,2.116,1.517,3.59,2.857,4.603 c-0.017,0.026-0.038,0.046-0.051,0.076c-0.37,0.92-0.91,2.08-1.3,2.57c-0.4,0.5-0.82,1.02-1.3,1.43c-0.69,0.6-1.55,1-2.3,1.31 c-0.141,0.054-0.293,0.109-0.436,0.142C29.836,34.812,29.822,34.75,29.793,34.69z M37.67,30.6c-0.03,0.05-0.05,0.1-0.06,0.16 c-0.29,2.19-2.08,3.89-3.75,5.31c-1.048,0.901-2.165,1.785-3.414,2.058c0.076-0.763,0.006-1.547-0.217-2.315 c0.157-0.044,0.308-0.102,0.451-0.163c0.82-0.34,1.77-0.78,2.57-1.47c0.55-0.47,1-1.03,1.43-1.57 c0.545-0.672,1.145-2.078,1.416-2.733c0.505,0.285,1.035,0.523,1.588,0.701C37.68,30.586,37.674,30.592,37.67,30.6z M42.944,29.524 c-0.396,0.192-0.857,0.327-1.412,0.412c-1.746,0.268-3.596-0.105-5.115-1.013c0.059-0.234,0.244-0.631,0.787-1.314 c0.482-0.609,1.02-1.234,1.684-1.671c0.668-0.44,1.414-0.622,2.045-0.508c0.934,0.174,1.658,0.936,2.441,1.839l0.153,0.173 c0.254,0.286,0.639,0.718,0.721,1.008c0.004,0.013,0.013,0.021,0.017,0.034C43.85,28.947,43.413,29.296,42.944,29.524z M45.352,26.912c-0.138,0.252-0.281,0.472-0.424,0.691c-0.194-0.299-0.437-0.582-0.654-0.826l-0.145-0.163 c-0.701-0.809-1.661-1.915-3.014-2.166c-0.898-0.168-1.882,0.064-2.778,0.654c-0.783,0.516-1.384,1.211-1.917,1.886 c-0.411,0.517-0.68,0.949-0.844,1.332c-1.01-0.873-1.728-2.115-2.221-3.853c-0.671-2.364-0.389-5.479,1.753-7.104 c1.075-0.816,2.459-1.251,3.917-1.251c0.375,0,0.754,0.028,1.134,0.087l0.384,0.059c1.681,0.254,2.791,0.422,4.027,1.489 c0.012,0.01,0.024,0.02,0.037,0.028c0.957,0.681,1.634,1.437,2.013,2.248C47.689,22.312,46.725,24.408,45.352,26.912z"/></svg>