<svg xmlns="http://www.w3.org/2000/svg" viewBox="0 0 48 48" width="480px" height="480px"><path fill="#9fdadf" d="M23.09,8.229c-5.783-0.112-12.262,6.005-13.778,12.368c-0.588,2.467-0.592,5.054-0.181,7.557 c0.259,1.577,0.696,3.159,1.592,4.482c1.702,2.514,4.748,3.706,7.645,4.613c1.298,0.406,2.605,0.785,3.92,1.135 c0.927,0.247,1.866,0.481,2.824,0.519c1.456,0.058,2.891-0.337,4.267-0.814c2.078-0.721,4.104-1.648,5.86-2.972 c1.757-1.323,3.238-3.064,4.029-5.117c0.601-1.561,0.789-3.249,0.866-4.92c0.126-2.748-0.045-5.561-1.034-8.128 c-0.989-2.567-2.884-4.877-5.441-5.893c-0.543-0.216-1.108-0.371-1.655-0.577c-1.711-0.643-3.281-1.784-5.104-1.929 C25.649,8.454,24.345,8.253,23.09,8.229z"/><path fill="#d4e2a9" d="M39.349,15.496c-2.121-0.16-4.233,0.824-5.375,2.578c-1.141,1.754-1.449,3.908-1.445,5.987 c0.001,0.599,0.026,1.202,0.171,1.784c0.358,1.439,1.439,2.643,2.749,3.389c1.31,0.746,2.832,1.072,4.344,1.181 c0.842,0.061,1.709,0.054,2.501-0.232c1.011-0.365,1.803-1.149,2.465-1.981c1.453-1.826,2.454-4.021,2.693-6.322 c0.106-1.019,0.054-2.089-0.426-3c-0.559-1.06-1.629-1.776-2.739-2.273C42.747,15.918,41.038,15.624,39.349,15.496z"/><path fill="#f58420" d="M28.998,3.563c-1.264-0.974-2.171-0.972-3.319-1.352c-2.274-0.754-4.939-0.172-6.691,1.462 s-2.52,4.251-1.928,6.572s2.521,4.251,4.842,4.844c0.904,0.231,1.846,0.272,2.779,0.26c1.525-0.02,3.159-0.221,4.308-1.225 c0.535-0.468,0.925-1.079,1.246-1.713c0.755-1.49,1.165-3.22,0.78-4.846C30.629,5.938,30.321,4.582,28.998,3.563z"/><path fill="#febf10" d="M25.978,31.677c-1.544-0.046-2.356-0.392-3.843,0.024s-2.843,1.349-3.594,2.654 c-0.674,1.171-0.831,2.546-0.957,3.879c-0.103,1.083-0.188,2.216,0.241,3.222c0.335,0.786,0.959,1.428,1.643,1.965 c2.478,1.947,6.082,2.66,8.993,1.384s4.753-4.702,3.746-7.624c-0.528-1.531-1.705-2.766-2.926-3.87 C28.161,32.299,27.51,31.723,25.978,31.677z"/><path fill="#cbdb2d" d="M13.087,19.818c-0.516-0.673-1.241-0.988-2.006-1.353c-0.77-0.368-1.55-0.739-2.385-0.914 c-1.667-0.348-3.438,0.132-4.862,1.067c-2.449,1.609-3.93,4.803-3.052,7.599c0.832,2.653,3.487,4.369,6.186,5.041 c1.706,0.425,3.586,0.504,5.154-0.293c2.245-1.141,3.327-3.85,3.287-6.368c-0.011-0.71-0.099-1.434-0.405-2.075 C14.515,21.498,13.776,20.717,13.087,19.818z"/><path fill="#c56528" d="M29.421,44.146c-0.984-1.912-2.39-3.672-4.539-3.769c-0.559-0.025-1.132,0.01-1.653,0.215 c-0.324,0.127-0.619,0.317-0.902,0.519c-0.959,0.689-1.795,1.549-2.456,2.527C19.871,43.639,24.196,47.125,29.421,44.146z"/><path fill="#4b7bb2" d="M44.612,28.382c-0.995-1.637-2.061-3.785-3.972-3.913c-0.434-0.029-1.28,0.018-1.703,0.119 c-0.488,0.116-1.041,0.694-1.457,0.975c-1.117,0.755-1.812,1.815-2.361,3.046C35.119,28.609,40.334,32.795,44.612,28.382z"/><path fill="#fcbf95" d="M26.224,34.616c-0.489-0.277-1.17-0.206-1.71-0.079c-0.532,0.126-1.087,0.349-1.394,0.831 c-0.23,0.361-0.287,0.812-0.338,1.245c-0.04,0.337-0.075,0.699,0.077,0.997c0.197,0.386,0.637,0.536,1.036,0.643 c0.709,0.19,1.498,0.346,2.138-0.03c0.447-0.263,0.744-0.748,0.937-1.253c0.155-0.406,0.255-0.855,0.168-1.284 S26.587,34.822,26.224,34.616z"/><path fill="#010101" d="M26.658,34.327c-0.042-0.056-0.098-0.106-0.181-0.143c-0.076-0.049-0.151-0.07-0.222-0.076 c-1.151-0.394-2.766-0.101-3.493,0.911c-0.747,1.04-0.826,2.944,0.478,3.536c1.262,0.573,2.93,0.629,3.788-0.617 C27.899,36.674,27.865,35.24,26.658,34.327z M26.077,37.54c-0.534,0.584-1.589,0.48-2.252,0.173 c-0.73-0.337-0.707-1.457-0.274-2.093c0.436-0.64,1.749-0.872,2.421-0.573C26.894,35.642,26.772,36.781,26.077,37.54z"/><path fill="#16b7b8" d="M29.208,13.781c-0.384-1.125-0.984-2.255-2.08-2.717c-1.096-0.461-2.313-0.56-3.5-0.508 c-0.426,0.018-0.858,0.057-1.255,0.213c-0.449,0.177-0.826,0.494-1.194,0.806c-0.748,0.634-1.506,0.875-2.055,1.687 C19.123,13.263,23.958,17.708,29.208,13.781z"/><path fill="#c56528" d="M39.747,18.747c-0.422,0.047-0.817,0.246-1.152,0.508c-0.206,0.161-0.396,0.351-0.508,0.586 c-0.126,0.264-0.146,0.565-0.14,0.857c0.01,0.48,0.109,1.007,0.484,1.308c0.143,0.115,0.315,0.187,0.487,0.249 c0.376,0.136,0.773,0.235,1.172,0.217c0.745-0.033,1.454-0.502,1.776-1.175c0.316-0.661,0.208-1.555-0.38-1.99 C41.271,19.149,40.17,18.7,39.747,18.747z"/><path fill="#010101" d="M42.422,19.799c-0.34-1.008-1.672-1.568-2.675-1.552c-0.032,0.001-0.056,0.013-0.085,0.019 c-0.017,0.002-0.031-0.004-0.048-0.001c-1.538,0.282-2.433,1.557-2.094,3.086c0.312,1.409,2.106,1.921,3.354,1.463 C42.072,22.375,42.842,21.043,42.422,19.799z M40.884,21.694c-0.655,0.441-1.927,0.377-2.329-0.377 c-0.52-0.974,0.341-1.858,1.245-2.066c0.416,0.009,1.037,0.201,1.362,0.443C41.861,20.214,41.5,21.279,40.884,21.694z"/><path fill="#ef4823" d="M13.296,29.985c-0.46-0.543-0.766-1.201-1.213-1.755c-1.127-1.396-3.107-1.964-4.862-1.591 C5.57,26.99,4.137,28.091,3.187,29.49C3.187,29.49,8.549,33.928,13.296,29.985z"/><path fill="#febf10" d="M24.857,4.489c-0.582-0.048-1.032,0.174-1.356,0.309c-0.252,0.105-0.45,0.314-0.617,0.535 c-0.185,0.244-0.345,0.515-0.413,0.816c-0.125,0.552,0.08,1.138,0.414,1.589c0.244,0.329,0.572,0.611,0.964,0.704 c0.126,0.03,0.255,0.04,0.384,0.048c0.397,0.026,0.809,0.036,1.175-0.124c0.641-0.28,0.979-1.016,1.098-1.721 c0.05-0.296,0.071-0.605-0.008-0.894c-0.079-0.29-0.367-0.426-0.546-0.663C25.755,4.828,25.389,4.533,24.857,4.489z"/><path fill="#010101" d="M26.615,5.047c-0.479-0.515-0.906-0.921-1.626-1.04c-0.016-0.003-0.028,0.003-0.043,0.001 c-0.031-0.006-0.055-0.019-0.09-0.019c-1.356-0.016-2.732,0.826-2.902,2.266c-0.155,1.309,0.883,2.604,2.181,2.727 c1.433,0.136,2.478-0.574,2.809-1.991C27.105,6.301,27.119,5.588,26.615,5.047z M25.98,6.725c-0.206,0.876-0.708,1.326-1.628,1.271 c-0.9-0.053-1.618-0.974-1.343-1.869c0.241-0.786,1.038-1.128,1.801-1.133C25.598,5.169,26.174,5.901,25.98,6.725z"/><path fill="#fcbf95" d="M8.291,20.589c-0.676-0.32-1.501-0.104-2.084,0.373s-0.879,1.302-0.736,2.057 c0.03,0.157,0.077,0.311,0.147,0.453c0.373,0.758,1.295,1.031,2.116,1.033c0.531,0.001,1.116-0.108,1.45-0.536 c0.26-0.333,0.311-0.788,0.327-1.217c0.018-0.488-0.003-1.005-0.251-1.421C9.032,20.95,8.664,20.818,8.291,20.589z"/><path fill="#010101" d="M9.921,21.644c-0.2-0.763-0.732-1.113-1.378-1.487c-0.029-0.017-0.056-0.018-0.084-0.028 c-0.013-0.006-0.021-0.017-0.035-0.022c-2.925-1.106-5,3.559-1.953,4.685c1.115,0.412,2.784,0.331,3.327-0.903 C10.084,23.239,10.1,22.325,9.921,21.644z M8.995,23.012c-0.123,1.052-1.227,1.135-2.061,0.882 c-1.972-0.599-0.651-3.45,1.163-2.839c0.367,0.211,0.741,0.415,0.859,0.854C9.048,22.248,9.036,22.665,8.995,23.012z"/><path fill="#010101" d="M39.35,15c-0.23-0.01-0.45,0-0.66,0.02c-0.9-1.59-2.13-2.97-3.77-3.9 c-1.08-0.61-2.19-1.12-3.32-1.56c0.21-2.35-0.53-4.8-2.25-6.35c-0.02-0.02-0.04-0.02-0.05-0.03c-0.02-0.02-0.03-0.04-0.05-0.05 C25.89,0.9,20.97,0.6,18.14,3.84c-1.49,1.7-2,3.93-1.62,6.02c-2.83,1.8-5.14,4.56-6.55,7.5c-2.59-0.77-5.52-0.23-7.55,1.75 c-2.92,2.86-3.22,7.43-0.13,10.28c1.86,1.72,4.9,2.9,7.63,2.67c0.78,1.41,1.85,2.65,3.27,3.54c1.2,0.75,2.56,1.36,3.97,1.89 c-0.03,0.25-0.06,0.49-0.08,0.74c-0.38,4.55,3.05,7.32,7.45,7.68c3.89,0.31,7.8-2.11,8.38-6.16c0.12-0.82,0.03-1.67-0.21-2.5 c0.24-0.12,0.48-0.24,0.71-0.37c2.77-1.52,4.64-3.6,5.8-6.02c0.19,0.02,0.38,0.04,0.58,0.05c4.73,0.26,7.72-4.6,8.14-8.9 C48.44,16.87,43.6,15.39,39.35,15z M37.62,15.16c-1.72,0.37-3.04,1.34-3.95,2.68c-0.19-0.58-0.41-1.15-0.64-1.73 c1.15-0.81,2.21-1.74,3.13-2.81C36.73,13.86,37.2,14.49,37.62,15.16z M28.38,28.84c0.01-1.28-0.05-2.61-0.15-3.96 c1.29-0.21,2.57-0.45,3.85-0.73c0.11,1.77,0.74,3.22,1.77,4.32c-0.11,0.96-0.27,1.9-0.51,2.8C31.78,30.32,30.16,29.39,28.38,28.84z M33.04,32.26c-0.33,1.02-0.77,1.99-1.28,2.92c-0.87-1.38-2.11-2.57-3.5-3.29c0.05-0.66,0.09-1.32,0.11-2.01 c1.58,0.53,3.03,1.38,4.55,2.3C32.96,32.21,33,32.23,33.04,32.26z M23.1,28.28c-0.73,0.01-1.44,0.04-2.15,0.18 c-0.04,0.01-0.07,0.02-0.11,0.03c-0.07-0.46-0.13-0.92-0.18-1.37c-0.06-0.51-0.09-1.02-0.14-1.53c2.22-0.06,4.47-0.25,6.72-0.57 c0.08,1.22,0.14,2.4,0.14,3.55C25.9,28.27,24.41,28.25,23.1,28.28z M27.38,29.59c-0.02,0.64-0.05,1.26-0.09,1.88 c-0.43-0.15-0.87-0.25-1.31-0.29c-1.62-0.11-3.09-0.2-4.5,0.25c-0.19-0.64-0.35-1.29-0.47-1.95c0.05-0.01,0.09-0.03,0.14-0.04 c0.63-0.13,1.29-0.15,1.97-0.16C24.43,29.25,25.94,29.26,27.38,29.59z M19.18,18.99v0.55c0.02,1.69,0.12,3.39,0.25,5.08 c-1.2,0.01-2.39-0.03-3.56-0.09c-0.07-1.38-0.57-2.48-1.32-3.58c0.2-1.19,0.42-2.29,0.69-3.28C16.49,18.27,17.82,18.7,19.18,18.99z M15.52,16.69c0.25-0.81,0.53-1.54,0.84-2.24c0.33-0.73,0.72-1.41,1.14-2.05c0.34,0.55,0.75,1.06,1.25,1.51 c0.27,0.24,0.57,0.46,0.9,0.67c-0.16,0.64-0.29,1.28-0.36,1.91c-0.05,0.5-0.08,1-0.1,1.49C17.92,17.7,16.69,17.25,15.52,16.69z M15.86,25.54c1.02,0.06,2.06,0.1,3.1,0.1c0.19,0,0.38-0.02,0.56-0.02c0.05,0.54,0.08,1.08,0.15,1.61c0.05,0.51,0.12,1.02,0.2,1.54 c-0.32,0.11-0.61,0.23-0.86,0.34c-1.28,0.55-2.5,1.23-3.66,2.01c-0.24-0.68-0.42-1.38-0.57-2.08c0.61-1.03,0.96-2.23,1.07-3.41 C15.86,25.6,15.85,25.57,15.86,25.54z M19.72,13.35c2.44-2.64,7.23-3.55,8.9,0.34C26.3,15.65,22.13,15.18,19.72,13.35z M26.34,18 c-0.72,0.15-1.44,0.28-2.18,0.34c-1.33,0.11-2.66,0.03-3.97-0.18c0.01-0.52,0.04-1.04,0.1-1.56c0.05-0.5,0.15-1.01,0.27-1.52 c1.59,0.74,3.56,1.05,5.36,0.81c0.14,0.62,0.27,1.24,0.38,1.86C26.32,17.83,26.33,17.91,26.34,18z M20.18,19.18 c0.88,0.13,1.77,0.21,2.67,0.21c0.46,0,0.93-0.01,1.39-0.05c0.77-0.06,1.52-0.19,2.26-0.35c0.29,1.74,0.52,3.42,0.66,5.04 c-2.25,0.32-4.5,0.53-6.72,0.59c-0.14-1.7-0.24-3.4-0.26-5.1V19.18z M27.32,17.77c-0.01-0.07-0.02-0.13-0.03-0.2 c-0.11-0.63-0.24-1.25-0.38-1.88c1.15-0.3,2.18-0.86,2.92-1.73c0.23-0.26,0.43-0.54,0.61-0.84c0.5,0.88,0.96,1.77,1.35,2.64 C30.41,16.65,28.9,17.32,27.32,17.77z M32.19,16.69c0.29,0.73,0.55,1.46,0.76,2.18c0.02,0.06,0.03,0.11,0.05,0.17 c-0.53,1.15-0.84,2.46-0.93,3.85c-0.01,0.08,0,0.15-0.01,0.23c-1.29,0.31-2.6,0.55-3.9,0.76c-0.15-1.65-0.39-3.36-0.68-5.12 C29.14,18.3,30.73,17.6,32.19,16.69z M31.45,10.59c1.02,0.4,2.02,0.85,2.96,1.39c0.36,0.2,0.68,0.43,0.99,0.67 c-0.82,0.95-1.76,1.79-2.77,2.52c-0.47-1.02-1.03-2.06-1.64-3.09C31.19,11.6,31.34,11.1,31.45,10.59z M19.87,3.64 c2.59-1.88,6.23-1.37,8.81,0.32c2.34,2.15,2.5,6.24,0.78,8.82c-0.03,0.04-0.07,0.08-0.1,0.12c-0.93-1.88-2.34-2.71-4.66-2.84 c-2.26-0.12-4.23,0.93-5.72,2.62c-0.07-0.08-0.14-0.15-0.21-0.23C16.61,9.8,17.05,5.67,19.87,3.64z M16.77,10.83 c0.06,0.2,0.13,0.38,0.21,0.57c-0.57,0.81-1.1,1.68-1.53,2.64c-0.32,0.72-0.59,1.46-0.83,2.19c-0.7-0.4-1.37-0.85-2.01-1.35 C13.76,13.28,15.18,11.89,16.77,10.83z M12.04,15.71c0.73,0.56,1.49,1.06,2.29,1.49c-0.25,0.93-0.45,1.83-0.6,2.63 c-0.1-0.12-0.19-0.24-0.29-0.37c-0.72-0.75-1.57-1.33-2.49-1.74C11.27,17.03,11.63,16.35,12.04,15.71z M3.11,28.79 C3.08,28.75,3.03,28.72,3,28.68c-2.58-2.4-2.47-6.1-0.1-8.61c2.63-2.79,7.2-2.66,9.83,0.1c1.27,1.6,2.3,2.96,2.16,5.12 c-0.09,1.37-0.57,2.91-1.49,4.01c-1.38-1.88-2.65-3.34-5.29-3.26C6.05,26.1,4.37,27.25,3.11,28.79z M3.89,29.4 c1.02-1.25,2.34-2.18,3.99-2.32c2.46-0.21,3.53,1.18,4.8,2.91C10.26,31.86,6.38,31.11,3.89,29.4z M10.99,31.89 c0.95-0.23,1.84-0.66,2.59-1.34c0.16-0.14,0.3-0.29,0.43-0.44c0.14,0.55,0.3,1.09,0.5,1.63c-0.78,0.58-1.52,1.2-2.22,1.88 C11.77,33.1,11.35,32.51,10.99,31.89z M17.32,36.49c-1.31-0.5-2.56-1.1-3.63-1.76c-0.22-0.14-0.44-0.29-0.64-0.45 c0.59-0.57,1.21-1.1,1.86-1.59c0.35,0.75,0.78,1.47,1.33,2.12c0.28,0.33,0.58,0.63,0.88,0.94l0.3,0.3 C17.39,36.2,17.35,36.34,17.32,36.49z M17,34.16c-0.53-0.63-0.94-1.34-1.28-2.09c1.16-0.8,2.4-1.49,3.68-2.04 c0.19-0.08,0.42-0.17,0.65-0.26c0.13,0.69,0.3,1.37,0.5,2.04c-0.28,0.15-0.56,0.32-0.84,0.53c-0.96,0.72-1.57,1.62-1.96,2.62 C17.5,34.7,17.24,34.44,17,34.16z M24.24,44.85c-1.32-0.16-2.56-0.6-3.69-1.29c1.16-1.52,2.73-3.01,4.77-2.6 c1.67,0.33,2.67,1.67,3.46,3.06C27.43,44.76,25.82,45.05,24.24,44.85z M31.79,40.25c-0.36,1.37-1.15,2.45-2.17,3.23 c-1-1.74-2.36-3.34-4.48-3.57c-2.33-0.26-4.07,1.33-5.4,3.08c-1.43-1.21-1.83-2.8-1.66-4.76c0.2-2.23,0.78-4.35,2.88-5.51 c1.61-0.9,3.28-0.66,5.02-0.54C29.35,32.5,32.67,36.99,31.79,40.25z M32.39,36.38c-0.03-0.05-0.04-0.1-0.06-0.14 c0.64-1.09,1.18-2.24,1.59-3.46c0.66,0.39,1.33,0.77,2.02,1.1C34.95,34.8,33.72,35.66,32.39,36.38z M36.66,33.12 c-0.83-0.39-1.64-0.84-2.44-1.32c0.23-0.83,0.4-1.67,0.53-2.53c0.97,0.71,2.16,1.21,3.52,1.46C37.85,31.57,37.33,32.38,36.66,33.12 z M39.79,29.91c-1.59-0.03-3.02-0.46-4.15-1.22c0.84-1.7,2.37-3.63,4.38-3.72c2.03-0.09,3.04,1.74,3.95,3.3 C42.87,29.3,41.47,29.95,39.79,29.91z M46.78,22.89c-0.34,1.64-1.05,3.32-2.11,4.62c-1.09-1.82-2.29-3.6-4.65-3.54 c-2.36,0.06-4.16,2.09-5.17,4.08c-1.19-1.13-1.88-2.75-1.81-4.77c0.14-3.82,2.05-7.35,6.31-7.28 C43.46,16.38,47.82,17.89,46.78,22.89z"/></svg>