<svg xmlns="http://www.w3.org/2000/svg" width="480" height="480" viewBox="0 0 48 48"><path fill="#fcbf95" d="M43.378,24.723c-0.303-1.447-0.923-2.277-1.824-3.449c-1.05-1.365-2.364-3.116-2.783-4.786 c-0.219-0.873-0.126-1.79-0.142-2.69c-0.058-3.181-1.584-6.305-4.058-8.305s-6.877-3.985-10.3-3.952 c-4.75,0.047-9.568,1.771-12.902,5.155c-3.052,3.097-3.186,5.01-3.634,9.335c-0.132,1.277-0.264,2.573-0.046,3.838 c0.22,1.277,1.214,4.946,1.812,6.096c1.803,3.464,3.05,3.447,4.514,7.068c0.772,1.91,0.079,8.326-0.452,11.321 c-0.475,2.683,17.56,2.053,17.771,1.063c0.176-0.826,0.17-5.827,0.339-7.982c0.114,0.006,0.229,0.012,0.343,0.018 c1.411,0.074,2.85,0.146,4.214-0.224s2.485-0.622,2.974-1.948c0.225-0.609,0.267-1.268,0.297-1.917 c0.086-1.834,0.064-4.139,0-5.974c0.909-0.216,3.504-1.13,3.719-1.375C43.515,25.676,43.471,25.164,43.378,24.723z"/><path fill="#010101" d="M23.47,46.76c-2.968,0-5.97-0.187-7.583-0.501c-0.758-0.147-3.064-0.598-2.817-1.991 c0.616-3.478,1.142-9.412,0.48-11.047c-0.771-1.906-1.457-2.74-2.252-3.705c-0.656-0.797-1.399-1.7-2.242-3.32 c-0.63-1.211-1.635-4.928-1.861-6.24c-0.231-1.343-0.092-2.681,0.042-3.976l0.031-0.294c0.425-4.12,0.639-6.188,3.745-9.34 c3.271-3.32,8.102-5.253,13.254-5.304c0.03,0,0.061,0,0.091,0c3.576,0,8.08,2.083,10.528,4.063c2.597,2.1,4.183,5.346,4.244,8.685 c0.004,0.239,0.001,0.48-0.002,0.721c-0.009,0.655-0.018,1.274,0.13,1.856c0.378,1.51,1.538,3.102,2.693,4.604 c0.885,1.15,1.584,2.06,1.917,3.651c0.104,0.488,0.187,1.2-0.272,1.724c-0.329,0.378-2.572,1.126-3.582,1.423 c0.063,2.028,0.058,4.104-0.014,5.62c-0.033,0.711-0.083,1.404-0.327,2.066c-0.559,1.515-1.818,1.854-3.15,2.214l-0.162,0.044 c-1.425,0.386-2.937,0.315-4.281,0.244c-0.086,0.803-0.104,2.584-0.119,3.948c-0.02,1.941-0.039,3.154-0.137,3.616 C31.635,46.4,27.585,46.76,23.47,46.76z M24.36,2.042c-0.028,0-0.056,0-0.084,0c-4.89,0.048-9.464,1.873-12.552,5.005 c-2.859,2.902-3.035,4.611-3.462,8.741l-0.03,0.295c-0.127,1.227-0.259,2.496-0.051,3.702c0.207,1.197,1.194,4.855,1.763,5.949 c0.794,1.526,1.472,2.35,2.127,3.146c0.812,0.986,1.579,1.918,2.407,3.966c0.849,2.099,0.065,8.842-0.423,11.596 c-0.015,0.085,0.175,0.216,0.213,0.241c2.382,1.58,14.996,1.14,16.601,0.473c0.064-0.564,0.079-1.989,0.092-3.262 c0.019-1.859,0.04-3.202,0.122-3.99l-2.646-0.14c-0.276-0.015-0.487-0.25-0.473-0.525c0.015-0.276,0.252-0.507,0.526-0.473 l3.554,0.188c1.353,0.07,2.753,0.146,4.056-0.206l0.163-0.044c1.375-0.371,2.11-0.611,2.474-1.595 c0.194-0.529,0.235-1.113,0.267-1.768c0.074-1.59,0.074-3.808-0.001-5.933c-0.008-0.238,0.152-0.449,0.385-0.504 c0.906-0.216,3.195-1.038,3.498-1.257c0.083-0.102,0.098-0.383,0.006-0.82c-0.273-1.306-0.809-2.048-1.731-3.248 c-1.219-1.584-2.445-3.273-2.871-4.969c-0.178-0.709-0.168-1.423-0.159-2.113c0.003-0.23,0.006-0.461,0.002-0.69 c-0.055-3.046-1.503-6.009-3.873-7.925C31.942,4.011,27.704,2.042,24.36,2.042z"/><path fill="#bcbcbc" d="M33.858,12.68c-0.066-0.101-0.199-0.129-0.318-0.145c-0.31-0.043-1.259-0.075-2.06-0.084 c-0.034-0.348-0.088-0.694-0.186-1.03c-0.059-0.202-0.136-0.396-0.217-0.589c0.733-0.509,1.563-1.078,1.774-1.269 c0.087-0.078,0.181-0.178,0.16-0.293c-0.017-0.09-0.1-0.15-0.174-0.204c-0.493-0.359-0.967-1.091-1.317-1.572 C31.11,7.716,30.364,8.3,29.711,8.852c-0.643-0.606-1.42-1.045-2.253-1.274c-0.022-0.662-0.045-1.339-0.023-1.715 C27.44,5.789,27.443,5.71,27.4,5.65c-0.055-0.078-0.164-0.091-0.259-0.097c-0.796-0.05-1.579-0.061-2.376-0.035 c-0.031,0.394-0.071,1.297-0.102,2.106c-0.476,0.143-0.929,0.352-1.344,0.626c-0.409-0.477-0.864-0.996-1.055-1.273 c-0.057-0.084-0.122-0.173-0.219-0.203c-0.128-0.04-0.259,0.037-0.371,0.111c-0.383,0.252-0.767,0.505-1.15,0.757 c-0.197,0.129-0.419,0.316-0.374,0.547c0.019,0.096,0.083,0.176,0.148,0.247c0.235,0.255,0.914,0.93,1.503,1.444 c-0.272,0.471-0.502,0.975-0.693,1.5c-0.776-0.13-1.586-0.268-1.852-0.276c-0.223-0.007-0.481,0.001-0.619,0.177 c-0.076,0.097-0.097,0.225-0.116,0.347c-0.096,0.634-0.192,1.267-0.288,1.901c0.311,0.011,1.34,0.098,2.284,0.16 c-0.067,0.627-0.031,1.261,0.137,1.855c-0.712,0.522-1.576,1.149-1.948,1.438c0.163,0.674,0.519,1.3,1.014,1.784 c0.297-0.234,1.274-0.937,2.049-1.488c0.534,0.47,1.176,0.816,1.854,0.999c0.294,0.08,0.593,0.131,0.894,0.167 c0.008,0.766-0.001,1.613-0.048,2.024c0.734,0.029,1.255-0.014,1.989,0.015c-0.002-0.392,0.03-1.261,0.055-2.025 c0.154-0.012,0.308-0.02,0.462-0.035c0.453-0.044,0.91-0.101,1.345-0.233c0.687,0.806,1.552,1.729,1.989,1.637 c0.143-0.03,0.262-0.126,0.375-0.22c0.462-0.38,0.924-0.761,1.386-1.141c-0.337-0.354-1.075-1.177-1.69-1.856 c0.445-0.611,0.766-1.318,0.952-2.064c0.705,0.024,1.485,0.049,1.762,0.068c0.134,0.009,0.286,0.011,0.378-0.087 c0.058-0.062,0.076-0.149,0.093-0.232c0.105-0.532,0.209-0.753,0.314-1.284C33.9,12.899,33.92,12.775,33.858,12.68z M26.001,15.478 c-0.637-0.012-1.302-0.145-1.791-0.553c-0.712-0.595-0.877-1.679-0.557-2.548c0.258-0.702,0.804-1.302,1.495-1.594 s1.484-0.422,2.135-0.051c1.286,0.835,1.629,2.624,0.747,3.876c-0.122,0.174-0.265,0.335-0.435,0.463 C27.15,15.407,26.56,15.489,26.001,15.478z"/><path fill="#010101" d="M33.793,12.075c-0.579-0.163-1.278-0.151-1.89-0.114c-0.064-0.354-0.161-0.697-0.283-1.029 c0.621-0.396,1.569-0.691,1.833-1.369c0.17-0.435-0.099-0.694-0.397-0.958c-0.441-0.39-0.763-0.89-1.105-1.364 c-0.16-0.222-0.43-0.322-0.684-0.179c-0.579,0.325-1.078,0.742-1.557,1.192c-0.519-0.425-1.111-0.775-1.766-1.027 c-0.005-0.325-0.02-0.649-0.021-0.975c0-0.365,0.072-0.723-0.221-0.995c-0.304-0.282-0.83-0.223-1.211-0.237 C25.916,5,25.341,5.002,24.765,5.018c-0.288,0.008-0.476,0.224-0.5,0.5c-0.053,0.612-0.135,1.22-0.167,1.833 c-0.238,0.097-0.467,0.211-0.686,0.34c-0.18-0.242-0.364-0.48-0.543-0.723c-0.175-0.238-0.336-0.544-0.632-0.651 c-0.387-0.139-0.693,0.064-1.008,0.262c-0.361,0.227-0.738,0.457-1.077,0.715c-1.185,0.903,0.162,2.065,1.124,2.594 c-0.188,0.316-0.358,0.65-0.509,1.005c-0.744-0.093-1.65-0.581-2.338-0.091c-0.332,0.236-0.377,0.604-0.434,0.978 c-0.082,0.539-0.163,1.077-0.245,1.615c-0.049,0.326,0.128,0.62,0.482,0.633c0.61,0.023,1.222,0.061,1.831,0.025 c-0.001,0.412,0.039,0.81,0.118,1.191c-0.044,0.018-0.088,0.033-0.13,0.065c-0.567,0.439-1.133,0.879-1.7,1.318 c-0.136,0.106-0.171,0.331-0.129,0.486c0.207,0.768,0.589,1.435,1.143,2.005c0.205,0.211,0.497,0.165,0.707,0 c0.551-0.431,1.116-0.847,1.691-1.245c0.581,0.46,1.312,0.797,2.192,0.976c0.034,0.54,0.065,1.076,0.012,1.619 c-0.027,0.275,0.251,0.492,0.5,0.5c0.663,0.022,1.326-0.007,1.989,0.015c0.27,0.009,0.5-0.236,0.5-0.5 c0.001-0.516,0.023-1.032,0.032-1.548c0.383-0.057,0.754-0.141,1.11-0.255c0.495,0.587,1.014,1.429,1.801,1.619 c0.955,0.229,1.872-0.944,2.523-1.48c0.212-0.175,0.172-0.526,0-0.707c-0.484-0.509-0.968-1.018-1.453-1.526 c0.311-0.456,0.565-0.977,0.744-1.57c0.306,0.022,0.611,0.044,0.917,0.066c0.321,0.023,0.68,0.09,0.982-0.055 c0.51-0.244,0.556-1.078,0.676-1.568C34.426,12.902,34.474,12.267,33.793,12.075z M31.405,8.178 c0.121,0.168,0.239,0.339,0.368,0.501c0.161,0.204,0.437,0.41,0.636,0.622c-0.207,0.193-0.624,0.365-0.79,0.462 c-0.142,0.084-0.282,0.169-0.42,0.257c-0.216-0.383-0.472-0.743-0.765-1.073C30.742,8.669,31.061,8.408,31.405,8.178z M25.214,6.014c0.246-0.004,0.493-0.01,0.739-0.006c0.237,0.003,0.699-0.049,1.002,0.013c0.009,0.214-0.026,0.458-0.018,0.644 c0.005,0.104,0,0.207,0.003,0.309c-0.648-0.062-1.254-0.034-1.816,0.074C25.151,6.703,25.178,6.358,25.214,6.014z M21.08,8.5 c-0.087-0.078-0.413-0.301-0.428-0.417c0.023,0.181,0.194-0.052,0.316-0.136c0.189-0.13,0.384-0.253,0.575-0.379 c0.128-0.084,0.256-0.168,0.383-0.252c0.008,0.027,0.016,0.053,0.023,0.08c0.102,0.044,0.222,0.297,0.3,0.397 c0.122,0.158,0.24,0.319,0.358,0.48c-0.269,0.233-0.518,0.493-0.748,0.778C21.579,8.898,21.32,8.715,21.08,8.5z M18.807,13.058 c0.027-0.179,0.054-0.358,0.081-0.537c0.028-0.186,0.036-0.811,0.184-0.9c0.198-0.119,0.649,0.065,0.853,0.116 c0.167,0.042,0.333,0.079,0.499,0.109c-0.023,0.073-0.048,0.143-0.069,0.216c-0.096,0.335-0.163,0.666-0.212,0.993 C19.706,13.101,19.254,13.084,18.807,13.058z M19.821,18.075c-0.218-0.284-0.391-0.594-0.513-0.933 c0.395-0.307,0.79-0.613,1.185-0.919c0.149,0.337,0.336,0.651,0.562,0.939C20.639,17.459,20.228,17.764,19.821,18.075z M25.969,19.979c-0.329-0.002-0.659-0.006-0.988-0.007c0.006-0.326-0.014-0.652-0.029-0.978c0.351,0.03,0.696,0.035,1.037,0.026 C25.983,19.339,25.977,19.659,25.969,19.979z M30.826,18.845c-0.331,0.272-0.51,0.605-0.907,0.349 c-0.34-0.219-0.606-0.575-0.866-0.913c0.469-0.244,0.895-0.554,1.273-0.925c0.338,0.355,0.676,0.711,1.014,1.066 C31.169,18.563,30.997,18.704,30.826,18.845z M25.626,18.002c-3.457-0.038-5.245-2.286-4.307-5.674 c0.758-2.74,2.639-4.781,5.682-4.359c0.051,0.014,0.097,0.037,0.147,0.052c0.063,0.04,0.133,0.065,0.21,0.074 c2.22,0.747,3.744,2.733,3.659,5.158C30.908,16.359,28.59,18.035,25.626,18.002z M33.361,13.043 c-0.049,0.1-0.058,0.241-0.087,0.349c-0.047,0.176-0.098,0.351-0.14,0.528c-0.066,0.281,0.012,0.196-0.266,0.177 c-0.313-0.022-0.625-0.045-0.938-0.067c0.053-0.357,0.079-0.71,0.072-1.058c0.32-0.01,0.64-0.016,0.96,0.006 c0.029,0.002,0.246,0.027,0.403,0.044C33.364,13.03,33.363,13.036,33.361,13.043z"/><path fill="#010101" d="M27.723,10.458c-0.042-0.062-0.099-0.118-0.188-0.158c-0.088-0.063-0.174-0.082-0.256-0.083 c-1.603-0.555-3.421,0.32-4.058,1.907c-0.564,1.405-0.017,3.062,1.439,3.619c1.552,0.594,3.414,0.167,4.101-1.437 C29.363,12.902,28.854,11.389,27.723,10.458z M27.986,13.405c-0.204,1.277-1.29,1.715-2.465,1.529 c-2.953-0.468-0.99-4.897,1.509-3.77C27.75,11.68,28.127,12.526,27.986,13.405z"/><path fill="#bcbcbc" d="M22.491,23.383C22.459,22.901,22.3,22.5,21.94,22.15c0.259-0.593,0.557-1.283,0.651-1.472 c0.042-0.086,0.086-0.184,0.053-0.274c-0.038-0.105-0.159-0.15-0.266-0.182c-0.464-0.139-0.927-0.277-1.39-0.416 c-0.111-0.033-0.231-0.066-0.339-0.024c-0.095,0.037-0.159,0.124-0.216,0.208c-0.124,0.183-0.374,0.877-0.59,1.481 c-0.503,0.045-1.016,0.195-1.544,0.409c-0.088,0.036-0.17,0.085-0.255,0.128c-0.527-0.456-1.166-0.988-1.408-1.251 c-0.072-0.078-0.153-0.161-0.259-0.177c-0.118-0.018-0.229,0.054-0.325,0.126c-0.39,0.295-0.736,0.649-1.023,1.046 c-0.066,0.091-0.131,0.194-0.122,0.306c0.009,0.111,0.09,0.202,0.17,0.28c0.277,0.271,0.938,0.737,1.557,1.109 c-0.148,0.368-0.189,0.776-0.124,1.166c-0.651,0.307-1.392,0.724-1.545,0.961c-0.24,0.372,1.025,2.042,1.372,1.788 c0.216-0.158,0.894-0.777,1.442-1.276c0.141,0.057,0.284,0.109,0.428,0.153c0.348,0.106,0.71,0.175,1.073,0.21 c0.041,0.752,0.102,1.722,0.102,2.052c0.56-0.039,1.12-0.078,1.68-0.118c0.197-0.014,0.425-0.046,0.528-0.215 c0.068-0.113,0.058-0.255,0.045-0.387c-0.035-0.364-0.128-1.19-0.203-1.874c0.243-0.191,0.439-0.433,0.607-0.695 c0.838,0.188,1.84,0.417,2.137,0.465c0.065,0.01,0.138,0.019,0.191-0.019c0.062-0.044,0.072-0.13,0.078-0.205 c0.044-0.648-0.01-1.297,0.034-1.945C24.083,23.51,23.242,23.44,22.491,23.383z"/><path fill="#010101" d="M24.478,23.014c-0.527-0.005-1.054-0.009-1.582-0.014c-0.086-0.342-0.229-0.668-0.444-0.958 c0.241-0.434,0.568-0.901,0.674-1.366c0.16-0.699-0.488-0.897-1.014-1.054c-0.584-0.175-1.414-0.62-1.941-0.106 c-0.396,0.387-0.502,1.019-0.71,1.513c-0.52,0.058-1.03,0.2-1.5,0.432c-0.23-0.249-0.461-0.499-0.691-0.748 c-0.208-0.225-0.439-0.545-0.763-0.612c-0.656-0.135-1.303,0.64-1.666,1.083c-0.441,0.538-0.599,1.042-0.055,1.572 c0.376,0.367,0.821,0.646,1.298,0.858c-0.076,0.311-0.11,0.627-0.075,0.937c-0.61,0.139-1.363,0.332-1.547,0.935 c-0.165,0.542,0.303,1.177,0.614,1.574c0.296,0.378,0.786,0.949,1.334,0.81c0.298-0.075,0.546-0.375,0.756-0.583 c0.214-0.211,0.421-0.43,0.64-0.636c0.343,0.133,0.706,0.22,1.075,0.273c0,0.527,0.001,1.054,0,1.581c0,0.256,0.23,0.519,0.5,0.5 c0.498-0.035,0.996-0.067,1.493-0.105c0.348-0.026,0.721-0.038,0.993-0.288c0.295-0.271,0.282-0.645,0.249-1.01 c-0.044-0.492-0.094-0.983-0.142-1.475c-0.001-0.015-0.009-0.025-0.012-0.039c0.068-0.063,0.143-0.115,0.207-0.186 c0.059-0.066,0.103-0.142,0.155-0.212c0.301,0.071,0.597,0.163,0.893,0.254c0.342,0.105,0.759,0.282,1.123,0.238 c0.444-0.054,0.579-0.428,0.608-0.821c0.045-0.614-0.004-1.233,0.029-1.848C24.993,23.242,24.737,23.016,24.478,23.014z M20.859,20.266c0.058-0.012,0.485,0.169,0.591,0.201c0.175,0.052,0.41,0.173,0.596,0.178c0,0,0,0,0,0 c-0.023,0.045-0.047,0.091-0.07,0.136c-0.103,0.198-0.206,0.396-0.309,0.593c-0.364-0.171-0.748-0.29-1.147-0.343 c0.05-0.135,0.102-0.27,0.156-0.404C20.712,20.537,20.822,20.274,20.859,20.266z M15.495,22.048 c-0.014-0.032-0.023-0.04-0.032-0.046c0.014-0.005,0.035-0.022,0.071-0.089c0.06-0.108,0.173-0.209,0.258-0.299 c0.14-0.149,0.321-0.359,0.522-0.474c0.174,0.148,0.324,0.359,0.463,0.509c0.113,0.123,0.227,0.246,0.34,0.369 c-0.127,0.107-0.256,0.213-0.369,0.336c-0.102,0.111-0.182,0.234-0.264,0.356C16.095,22.556,15.615,22.321,15.495,22.048z M16.316,26.72c-0.004,0.004-0.045,0.039-0.091,0.079c-0.085-0.095-0.245-0.208-0.306-0.28c-0.189-0.225-0.334-0.48-0.454-0.738 c0.017-0.008,0.023-0.014,0.054-0.024c0.109-0.037,0.214-0.09,0.326-0.125c0.161-0.05,0.325-0.086,0.489-0.125 c0.14,0.238,0.33,0.449,0.56,0.634C16.702,26.335,16.513,26.532,16.316,26.72z M17.973,22.613c1.005-0.669,2.318-0.867,3.389-0.288 c0.794,0.707,0.817,1.846,0.218,2.717c-0.739,1.076-2.121,1.072-3.24,0.717C16.702,25.241,16.576,23.543,17.973,22.613z M21.064,27.049c0.016,0.169,0.135,0.79,0.093,0.847c-0.008,0.011-0.64,0.03-0.749,0.037c-0.176,0.012-0.351,0.025-0.527,0.037 c0-0.334,0-0.669,0-1.003c0.398-0.031,0.786-0.12,1.149-0.269C21.042,26.815,21.053,26.932,21.064,27.049z M23.35,24.938 c-0.178-0.055-0.356-0.11-0.535-0.16c0.086-0.254,0.135-0.515,0.158-0.778c0.333,0.003,0.665,0.006,0.997,0.009 c-0.002,0.159-0.009,0.318-0.008,0.477c0.001,0.16,0.046,0.451,0.032,0.679C23.769,25.112,23.491,24.982,23.35,24.938z"/></svg>