<svg xmlns="http://www.w3.org/2000/svg" viewBox="0 0 48 48" width="480px" height="480px"><path fill="#9fdadf" d="M10.989,8.454C8.432,8.65,5.714,8.388,3.156,8.583C2.736,8.616,2.291,8.657,1.954,8.91 c-0.529,0.397-0.599,1.15-0.611,1.811c-0.127,7.214,1.67,15.159,1.056,22.347c-0.038,0.446-0.069,0.942,0.212,1.29 c0.161,0.199,0.402,0.315,0.639,0.413c3.431,1.419,7.084,0.137,10.785-0.161c3.412-0.275,6.837,0.175,10.26,0.252 c5.865,0.133,11.767-0.827,17.577-0.016c1.345,0.188,2.959,0.376,3.832-0.664c0.536-0.639,0.59-1.541,0.618-2.375 c0.187-5.505,0.374-11.01,0.562-16.515c0.058-1.711,0.116-3.425-0.005-5.132c-0.032-0.452-0.087-0.93-0.369-1.284 c-0.297-0.373-0.782-0.529-1.238-0.667c-0.939-0.284-1.936,0.217-2.917,0.168c-1.291-0.065-2.474,0.231-3.767,0.234 C29.375,8.625,20.187,7.838,10.989,8.454z"/><path fill="#c56528" d="M23.131,16.412c1.381-0.838,1.132-2.419,0.903-2.965s-0.628-1.165-2.488-2.058s-5.14-0.889-7.507,0 s-1.543,4.581-1.543,4.581c2.567-2.241,5.789-1.872,5.789-1.872S21.346,13.479,23.131,16.412z"/><path fill="#bcbcbc" d="M35.184,42.215c-1.756,0.146-3.514,0.228-5.273,0.274l-0.036-7.718l-12.083-0.232l-0.453,7.919 c-1.527-0.013-3.054-0.02-4.58,0.001v2.391c7.453-0.621,15.116-0.128,22.594-0.229L35.184,42.215z"/><path fill="#4b7bb2" d="M33.016,12.074c-0.261,1.576,0.45,2.967,0.481,4.564c2.883-0.514,5.475-0.168,8.403-0.199 c0.114-0.001,0.242-0.009,0.317-0.094c0.048-0.055,0.063-0.131,0.074-0.203c0.134-0.876,0.017-1.968-0.174-2.834 c-0.159-0.722-0.366-1.037-0.524-1.759C38.734,11.479,35.801,11.422,33.016,12.074z"/><path fill="#010101" d="M33.497,17.139c-0.115,0-0.228-0.039-0.317-0.113c-0.113-0.093-0.18-0.23-0.183-0.377 c-0.012-0.619-0.134-1.206-0.264-1.826c-0.186-0.895-0.378-1.818-0.21-2.83c0.033-0.199,0.183-0.358,0.379-0.405 c2.914-0.681,5.991-0.604,8.704-0.537c0.229,0.006,0.426,0.168,0.476,0.393c0.074,0.337,0.16,0.578,0.245,0.82 c0.098,0.276,0.194,0.554,0.279,0.938c0.113,0.517,0.358,1.846,0.18,3.017c-0.013,0.084-0.042,0.286-0.192,0.457 c-0.23,0.261-0.552,0.264-0.689,0.265c-0.908,0.007-1.786-0.017-2.65-0.043c-1.918-0.058-3.726-0.112-5.669,0.234 C33.556,17.136,33.526,17.139,33.497,17.139z M33.471,12.485c-0.054,0.71,0.091,1.404,0.242,2.133 c0.097,0.465,0.195,0.94,0.248,1.439c1.83-0.267,3.529-0.216,5.323-0.16c0.824,0.024,1.662,0.05,2.529,0.043 c0.081-0.712,0.013-1.631-0.184-2.524c-0.074-0.337-0.16-0.578-0.245-0.82c-0.063-0.176-0.124-0.352-0.183-0.556 C38.757,11.984,36.031,11.944,33.471,12.485z"/><path fill="#4b7bb2" d="M33.542,20.046c0.229,1.305,0.36,2.682,0.307,4.006c0.469-0.031,0.933-0.118,1.4-0.173 c2.099-0.248,4.85,0.128,6.936-0.22c0.08-0.013,0.165-0.03,0.226-0.085c0.081-0.074,0.096-0.194,0.104-0.303 c0.108-1.365-0.104-2.362-0.165-3.729C39.509,19.625,36.347,19.59,33.542,20.046z"/><path fill="#010101" d="M33.849,24.552c-0.13,0-0.256-0.051-0.35-0.143c-0.102-0.099-0.155-0.236-0.15-0.378 c0.048-1.178-0.053-2.49-0.299-3.899c-0.023-0.132,0.007-0.267,0.085-0.376c0.077-0.108,0.195-0.182,0.327-0.203 c2.278-0.371,4.749-0.421,7.139-0.47c0.587-0.013,1.167-0.024,1.734-0.041c0.252,0.009,0.501,0.204,0.515,0.478 c0.02,0.463,0.059,0.882,0.095,1.287c0.073,0.806,0.143,1.566,0.068,2.503c-0.01,0.127-0.033,0.422-0.265,0.634 c-0.174,0.156-0.373,0.19-0.479,0.209c-1.168,0.195-2.522,0.171-3.832,0.15c-1.128-0.021-2.192-0.039-3.129,0.072 c-0.161,0.02-0.323,0.043-0.484,0.066c-0.313,0.045-0.627,0.089-0.942,0.109C33.87,24.552,33.859,24.552,33.849,24.552z M34.117,20.465c0.164,1.069,0.246,2.085,0.243,3.031c0.107-0.015,0.214-0.029,0.321-0.045c0.169-0.024,0.339-0.049,0.508-0.068 c1.004-0.119,2.151-0.099,3.264-0.08c1.231,0.021,2.504,0.042,3.564-0.123c0.06-0.864-0.003-1.555-0.068-2.283 c-0.025-0.271-0.051-0.55-0.071-0.842c-0.413,0.011-0.833,0.02-1.257,0.027C38.44,20.127,36.191,20.173,34.117,20.465z"/><path fill="#d6e5e5" d="M5.072,35.313c0,0-0.087-4.081,2.587-4.843c2.674-0.762,4.395-0.841,4.395-0.841l2.219-1.671 c0,0,5.15,1.292,7.23-0.458c1.43,1.147,2.873,1.957,4.539,1.645s3.27,0.832,3.857,2.762c0.587,1.929,0.696,2.632,0.696,2.632H13.5 L5.072,35.313z"/><path fill="#fcbf95" d="M14.429,28.149v-3.916c0,0-1.781-2.233-1.933-4.983c-1.084-0.404-1.386-0.733-1.285-1.788 c0.102-1.056,0.762-1.356,1.479-1.55s2.036-1.779,3.55-1.791s4.29-0.677,5.651,0.726c1.36,1.403,0.951,1.622,0.951,1.622 l1.451-0.285c0,0,1.53,2.694-1.631,3.724c-0.304,1.939-0.104,3.669-1.352,4.709C21.406,26,21.503,27.5,21.503,27.5 S17.67,28.986,14.429,28.149z"/><path fill="#4b7bb2" d="M33.542,27.5c0.155,1.49-0.155,2.578,0,4.068c2.37,0.146,5.784-0.106,8.158-0.056 c0.213,0.005,0.452-0.001,0.604-0.151c0.173-0.172,0.155-0.452,0.125-0.694c-0.188-1.505-0.376-2.01-0.565-3.514 c-0.007-0.053-0.017-0.112-0.06-0.143c-0.032-0.023-0.073-0.024-0.112-0.025C39.139,26.939,36.084,27.265,33.542,27.5z"/><path fill="#010101" d="M35.313,32.114c-0.639,0-1.247-0.013-1.802-0.047c-0.244-0.015-0.441-0.204-0.467-0.447 c-0.082-0.786-0.041-1.462-0.002-2.116c0.038-0.642,0.074-1.248,0.002-1.952c-0.014-0.133,0.026-0.266,0.11-0.369 c0.085-0.104,0.208-0.168,0.341-0.181l0.931-0.087c2.344-0.221,5.011-0.465,7.274-0.43c0.074,0.002,0.238,0.006,0.395,0.118 c0.223,0.162,0.254,0.405,0.265,0.485c0.093,0.744,0.186,1.238,0.278,1.733c0.095,0.51,0.19,1.021,0.286,1.783 c0.028,0.225,0.094,0.75-0.269,1.11c-0.311,0.309-0.738,0.296-0.965,0.297c-1.003-0.021-2.177,0.011-3.419,0.046 C37.278,32.086,36.264,32.114,35.313,32.114z M34.007,31.091c1.262,0.052,2.771,0.009,4.237-0.032 c1.256-0.036,2.44-0.069,3.467-0.046c0.137,0,0.225-0.004,0.257-0.019c-0.031,0.012-0.009-0.058-0.035-0.264 c-0.093-0.738-0.185-1.231-0.277-1.724c-0.084-0.451-0.169-0.901-0.253-1.525c-2.154,0.011-4.664,0.22-6.882,0.429l-0.443,0.042 c0.025,0.578-0.006,1.102-0.036,1.611S33.981,30.56,34.007,31.091z"/><path fill="#010101" d="M15.829,17.936c-0.175,0-0.342-0.015-0.496-0.028c-0.139-0.013-0.272-0.024-0.398-0.025 c-0.077,0.03-0.164,0.041-0.248,0.031l-0.114-0.015c-0.247-0.032-0.434-0.241-0.437-0.49s0.178-0.462,0.424-0.5 c0.31-0.047,0.604-0.021,0.862,0.003c0.222,0.02,0.432,0.038,0.613,0.011c0.267-0.035,0.527,0.148,0.567,0.423 c0.039,0.273-0.149,0.527-0.423,0.567C16.061,17.929,15.942,17.936,15.829,17.936z"/><path fill="#010101" d="M19.417,17.962c-0.268,0-0.489-0.211-0.5-0.48c-0.011-0.276,0.205-0.509,0.48-0.52l1.357-0.053 c0.324,0.011,0.509,0.205,0.52,0.48c0.011,0.276-0.205,0.509-0.48,0.52l-1.357,0.053C19.43,17.962,19.423,17.962,19.417,17.962z"/><path fill="#010101" d="M18.086,21.587c-0.016,0-0.03-0.001-0.045-0.002l-0.592-0.052c-0.099-0.009-0.266-0.067-0.343-0.129 c-0.102-0.082-0.259-0.266-0.209-0.595l0.353-2.66c0.037-0.274,0.304-0.469,0.562-0.431c0.274,0.037,0.467,0.288,0.431,0.562 l-0.305,2.292l0.191,0.017c0.275,0.024,0.479,0.268,0.454,0.542C18.56,21.392,18.342,21.587,18.086,21.587z M17.888,20.945v0.005 C17.888,20.949,17.888,20.947,17.888,20.945z"/><path fill="#010101" d="M16.819,23.167c-0.264,0-0.484-0.206-0.499-0.472c-0.016-0.276,0.195-0.512,0.471-0.527l2.027-0.114 c0.313-0.008,0.513,0.196,0.527,0.471c0.016,0.276-0.195,0.512-0.471,0.527l-2.027,0.114 C16.838,23.167,16.828,23.167,16.819,23.167z"/><path fill="#010101" d="M47.378,10.125C47.343,9.614,47.273,9.03,46.9,8.563c-0.423-0.531-1.03-0.851-1.624-0.855 c-1.149-0.005-2.889,0.125-4.427,0.244c-1.192,0.093-2.284,0.182-2.873,0.174c-3.402-0.028-6.523-0.126-9.541-0.222 c-5.844-0.183-11.363-0.358-17.479,0.052l-0.005,0.001c-1.26,0.095-2.591,0.08-3.876,0.063c-1.309-0.016-2.66-0.033-3.957,0.066 C2.696,8.117,2.119,8.161,1.653,8.51c-0.69,0.52-0.797,1.405-0.81,2.202c-0.057,3.218,0.271,6.628,0.588,9.926 c0.397,4.142,0.809,8.423,0.47,12.388c-0.039,0.451-0.097,1.133,0.321,1.647c0.287,0.355,0.626,0.562,0.979,0.596 c1.563,0.152,2.935,0.213,4.229,0.213c2.055,0,3.918-0.152,6.058-0.326l0.587-0.048c1-0.081,2.013-0.092,3.026-0.074 c0.198,2.314,0.009,4.62-0.267,6.918c-1.359-0.01-2.725-0.011-4.082,0.006c-0.273,0.004-0.493,0.227-0.493,0.5v2.392 c0,0.14,0.059,0.273,0.161,0.368c0.093,0.085,0.214,0.132,0.339,0.132c0.014,0,0.027-0.001,0.042-0.002 c4.839-0.403,9.852-0.332,14.695-0.266c2.585,0.037,5.26,0.073,7.863,0.038c0.138-0.002,0.269-0.061,0.361-0.161 c0.093-0.102,0.141-0.236,0.131-0.374l-0.169-2.405c-0.01-0.133-0.072-0.258-0.174-0.345c-0.102-0.088-0.228-0.132-0.367-0.118 c-1.534,0.128-3.079,0.197-4.626,0.246c-0.11-2.241-0.167-4.488-0.144-6.729c0.441-0.021,0.882-0.043,1.318-0.065 c3.275-0.166,6.662-0.337,10.145-0.058c0.26,0.021,0.528,0.058,0.8,0.093c1.207,0.161,2.577,0.342,3.453-0.702 c0.67-0.799,0.707-1.886,0.734-2.68l0.562-16.515C47.441,13.616,47.501,11.867,47.378,10.125z M13.995,34.111l-0.588,0.048 c-2.73,0.222-5.015,0.402-7.819,0.275c-0.106-1.361,0.676-2.754,1.905-3.351c0.748-0.363,1.626-0.464,2.555-0.571 c0.661-0.076,1.333-0.154,1.966-0.335c0.459,0.25,1.106,0.659,1.694,1.034c1.387,0.883,1.607,0.993,1.87,0.997 c0.692-0.023,1.342-0.524,1.914-0.967c0.288-0.222,0.56-0.432,0.788-0.546c0.086-0.043,0.13-0.052,0.132-0.057 c0.024,0.015,0.073,0.06,0.125,0.106c0.148,0.135,0.303,0.297,0.464,0.465c0.522,0.545,1.115,1.162,1.84,1.323 c0.103,0.023,0.219,0.045,0.343,0.045c0.077,0,0.157-0.008,0.239-0.028c0.283-0.071,0.471-0.259,0.596-0.384 c0.312-0.312,0.608-0.842,0.923-1.404c0.255-0.455,0.544-0.971,0.757-1.185c0.046-0.046,0.078-0.099,0.103-0.155 c0.955,0.202,1.937,0.221,2.723,0.233c0.537,0.009,0.976,0.03,1.334,0.209c0.422,0.21,0.733,0.657,0.958,1.023 c0.695,1.133,1.072,2.188,1.229,3.362c-1.891,0.089-3.817,0.158-5.739,0.112c-1.157-0.026-2.314-0.095-3.471-0.164 C18.598,34.064,16.285,33.927,13.995,34.111z M11.808,18.541c-0.081-0.105-0.092-0.346-0.101-0.521 c-0.007-0.168-0.017-0.337,0.001-0.504c0.035-0.319,0.185-0.628,0.369-0.922c0.025,0.018,0.053,0.033,0.082,0.046l-0.054,1.287 c-0.01,0.249-0.02,0.516-0.025,0.787C11.962,18.659,11.856,18.604,11.808,18.541z M12.816,13.649 c1.089-3.381,6.044-2.389,7.905-2.019l0.438,0.085c0.067,0.012,0.118,0.024,0.166,0.035c0.054,0.414,0.001,0.812-0.154,1.124 c-0.166,0.332-0.451,0.576-0.766,0.654c-0.139,0.035-0.283,0.042-0.428,0.051c-0.151,0.01-0.288,0.015-0.433,0.023 c-0.021,0.002-0.04-0.004-0.06-0.002c-0.007,0.001-0.012,0.005-0.019,0.006c-0.466,0.025-0.913,0.042-1.342,0.024 c-0.146-0.007-0.291-0.018-0.438-0.027c-0.378-0.027-0.771-0.056-1.173-0.022c-1.35,0.109-2.519,0.866-3.458,1.474 c-0.095,0.061-0.205,0.138-0.318,0.224C12.671,14.614,12.694,14.031,12.816,13.649z M23.962,18.298 c-0.124,0.362-0.385,0.672-0.706,0.886c0.069-0.706,0.102-1.397,0.104-2.087c0.044-0.018,0.087-0.039,0.126-0.071 c0.131-0.107,0.243-0.235,0.357-0.36C24.071,17.243,24.124,17.824,23.962,18.298z M23.307,15.75c-0.029-0.09-0.076-0.17-0.144-0.23 c-0.077-0.186-0.167-0.367-0.302-0.535c-0.266-0.329-0.617-0.518-0.928-0.685c-0.14-0.074-0.295-0.155-0.456-0.233 c0.24-0.201,0.443-0.455,0.588-0.746c0.134-0.268,0.217-0.564,0.256-0.876c0.375,0.147,0.721,0.52,0.996,0.865 c0.21,0.262,0.401,0.518,0.456,0.784c0.019,0.089,0.023,0.193,0.016,0.329C23.762,14.9,23.583,15.361,23.307,15.75z M13.104,17.969 l0.073-1.745c0.1-0.113,0.255-0.22,0.421-0.328c0.846-0.547,1.896-1.228,2.995-1.317c0.328-0.026,0.665-0.002,1.022,0.023 c0.154,0.011,0.309,0.021,0.462,0.028c0.527,0.026,1.053,0.001,1.606-0.032c0.56-0.035,1.136,0.243,1.778,0.585 c0.237,0.127,0.482,0.259,0.622,0.432c0.113,0.14,0.185,0.339,0.261,0.566c0.082,2.215-0.154,3.981-0.554,5.954 c-0.212,1.045-0.365,1.799-1.114,2.307c-0.646,0.439-1.723,0.701-2.613,0.648c-0.999-0.064-2.127-0.217-2.914-0.854 c-0.243-0.197-0.475-0.456-0.727-0.813c-0.771-1.095-1.23-2.381-1.327-3.719C13.055,19.126,13.08,18.538,13.104,17.969z M14.871,25.46c0-0.066,0-0.133,0.001-0.199c0.949,0.603,2.101,0.76,3.127,0.826c0.102,0.007,0.205,0.01,0.31,0.01 c0.928,0,1.927-0.265,2.669-0.685c0.094,0.573,0.073,1.061,0.04,1.75l-0.005,0.119c-1.845,0.686-3.898,0.845-5.859,0.422 c-0.102-0.022-0.216-0.044-0.334-0.061C14.864,26.957,14.868,26.146,14.871,25.46z M13.792,29.183l0.174-0.184 c0.156-0.169,0.304-0.328,0.445-0.369c0.131-0.038,0.326,0.004,0.57,0.058c2.114,0.452,4.37,0.286,6.396-0.469 c0.405,0.407,0.891,0.687,1.408,0.894c-0.238,0.311-0.472,0.724-0.715,1.161c-0.255,0.456-0.545,0.972-0.758,1.186 c-0.035,0.035-0.109,0.109-0.124,0.119c-0.005-0.001-0.037,0.001-0.127-0.021c-0.433-0.096-0.913-0.598-1.337-1.04 c-0.179-0.186-0.351-0.364-0.534-0.53c-0.108-0.099-0.256-0.233-0.468-0.301c-0.401-0.128-0.768,0.054-0.89,0.114 c-0.314,0.158-0.623,0.396-0.95,0.649c-0.426,0.328-0.904,0.697-1.268,0.752c-0.229-0.108-0.882-0.524-1.368-0.834 c-0.371-0.237-0.747-0.476-1.095-0.688C13.377,29.54,13.593,29.382,13.792,29.183z M34.816,44.126 c-2.423,0.024-4.904-0.01-7.306-0.044c-4.692-0.064-9.537-0.133-14.252,0.227v-1.356c2.417-0.022,4.863,0.008,7.236,0.04 c4.661,0.06,9.481,0.124,14.225-0.238L34.816,44.126z M29.517,41.988c-3.022,0.07-6.046,0.044-9.009,0.004 c-0.884-0.012-1.786-0.021-2.685-0.03c0.277-2.293,0.473-4.593,0.28-6.901c0.897,0.033,1.792,0.081,2.674,0.134 c1.169,0.07,2.338,0.14,3.507,0.166c1.708,0.039,3.411-0.01,5.089-0.082C29.35,37.513,29.406,39.754,29.517,41.988z M46.384,15.274 L45.822,31.79c-0.028,0.84-0.086,1.575-0.5,2.07c-0.524,0.623-1.511,0.492-2.557,0.354c-0.288-0.038-0.574-0.075-0.851-0.098 c-3.547-0.285-6.966-0.112-10.275,0.055c-0.195,0.01-0.394,0.019-0.591,0.029c-0.168-1.35-0.591-2.549-1.38-3.836 c-0.294-0.479-0.715-1.071-1.362-1.395c-0.59-0.295-1.241-0.306-1.765-0.314c-1.836-0.027-3.556-0.154-4.534-1.241l0.009-0.207 c0.041-0.886,0.06-1.559-0.171-2.487c0.573-0.678,0.75-1.521,0.935-2.433c0.14-0.69,0.247-1.325,0.335-1.938 c0.827-0.258,1.511-0.905,1.792-1.727c0.284-0.829,0.174-1.798-0.309-2.728c-0.034-0.066-0.082-0.119-0.138-0.162 c0.18-0.396,0.301-0.819,0.326-1.252c0.013-0.225,0.002-0.412-0.034-0.587c-0.098-0.482-0.377-0.861-0.654-1.207 c-0.403-0.505-0.914-1.053-1.609-1.24c-0.01-0.028-0.013-0.058-0.029-0.085c-0.282-0.479-0.853-0.581-1.126-0.63l-0.417-0.081 c-2.104-0.42-7.693-1.537-9.053,2.692c-0.197,0.611-0.192,1.363-0.128,2.008c-0.014,0.015-0.033,0.024-0.045,0.041 c-0.396,0.534-0.89,1.199-0.979,2.018c-0.023,0.217-0.016,0.437-0.005,0.655c0.013,0.291,0.032,0.729,0.306,1.086 c0.217,0.281,0.516,0.416,0.756,0.523c0.138,0.062,0.262,0.122,0.34,0.19c0.124,1.487,0.636,2.914,1.495,4.133 c0.097,0.137,0.191,0.246,0.286,0.362c-0.017,0.232-0.019,0.574-0.021,1.096c-0.003,0.726-0.01,1.674-0.072,2.367 c-0.233,0.142-0.415,0.333-0.568,0.498l-0.147,0.156c-0.32,0.321-0.711,0.527-1.145,0.673c-0.027,0.006-0.052,0.014-0.078,0.025 c-0.585,0.185-1.244,0.265-1.927,0.344c-0.972,0.112-1.976,0.228-2.876,0.664c-1.55,0.752-2.544,2.482-2.468,4.197 c-0.418-0.029-0.846-0.063-1.293-0.107C3.241,34.268,3.13,34.204,3,34.043c-0.152-0.187-0.137-0.532-0.103-0.932 c0.347-4.056-0.069-8.384-0.471-12.568c-0.314-3.271-0.639-6.652-0.583-9.814c0.009-0.556,0.064-1.159,0.41-1.419 c0.215-0.161,0.539-0.197,0.94-0.228c0.773-0.06,1.573-0.076,2.375-0.076c0.499,0,0.999,0.007,1.493,0.013 c1.308,0.019,2.661,0.034,3.962-0.065c6.067-0.407,11.563-0.234,17.38-0.05c3.023,0.095,6.149,0.193,9.564,0.222 c0.599,0,1.691-0.079,2.958-0.177c1.518-0.116,3.238-0.248,4.342-0.241c0.286,0.002,0.62,0.19,0.85,0.479 c0.194,0.243,0.236,0.632,0.262,1.009C46.5,11.886,46.441,13.608,46.384,15.274z"/></svg>