<svg width="500" height="500" viewBox="0 0 500 500" fill="none" xmlns="http://www.w3.org/2000/svg">
<path d="M90 40C62.5048 40 40 62.5048 40 90V410C40 437.495 62.5048 460 90 460H410C437.495 460 460 437.495 460 410V90C460 62.5048 437.495 40 410 40H90ZM90 60H410C426.685 60 440 73.3152 440 90V410C440 426.685 426.685 440 410 440H90C73.3152 440 60 426.685 60 410V90C60 73.3152 73.3152 60 90 60ZM233.965 159.922C223.39 159.898 213.961 160.489 205.527 164.629C205.521 164.635 205.514 164.642 205.508 164.648C201.396 166.674 198.499 169.247 196.191 172.305C195.038 173.834 193.856 175.206 193.223 178.691C192.906 180.434 192.728 183.258 194.551 186.309C196.373 189.359 200.038 191.094 202.383 191.406C204.012 191.623 207.688 193.188 208.027 193.652C208.034 193.665 208.04 193.678 208.047 193.691C208.049 193.695 209.473 197.411 209.883 200.723C210.293 204.034 210.273 206.719 210.273 206.719C210.269 206.986 210.276 207.253 210.293 207.52C210.293 207.52 210.872 216.195 210.488 225.156C210.335 228.728 209.873 231.905 209.395 234.746C205.833 230.814 200.586 223.695 193.008 210.566C184.601 195.994 177.91 182.93 177.91 182.93C177.559 181.791 176.316 178.25 171.465 174.688C166.162 170.779 161.035 170.195 161.035 170.195C160.392 170.066 159.738 170.001 159.082 170L119.668 170.02C119.668 170.02 117.305 169.883 114.473 170.273C111.641 170.664 107.376 170.982 103.262 175.859C103.255 175.866 103.249 175.872 103.242 175.879C99.5653 180.272 99.7877 185.128 100.234 187.871C100.681 190.614 101.68 192.695 101.68 192.695C101.699 192.735 101.718 192.774 101.738 192.812C101.738 192.812 133.977 260.595 170.41 300.508C196.867 329.488 224.022 329.98 246.426 329.98H263.145C267.413 329.98 271.274 329.814 275.547 327.324C279.82 324.835 282.695 318.774 282.695 314.57C282.695 310.165 283.353 306.702 284.16 304.922C284.728 303.67 285.177 303.219 285.879 302.852C286.027 302.946 285.931 302.891 286.348 303.184C288.012 304.354 290.761 307.023 293.75 310.352C299.728 317.009 306.513 326.14 315.625 332.402C322.153 336.892 328.32 338.886 333.008 339.609C335.945 340.063 338.226 339.975 339.844 339.844L377.188 340C377.409 340.001 377.63 339.994 377.852 339.98C377.852 339.98 384.286 340.055 390.977 336.055C394.322 334.054 398.267 330.261 399.551 324.727C400.834 319.192 399.221 313.457 396.074 308.223C396.074 308.216 396.074 308.21 396.074 308.203C396.621 309.109 395.579 307.247 394.512 305.508C393.444 303.768 391.894 301.424 389.668 298.516C385.217 292.699 378.087 284.559 366.562 273.828C366.556 273.828 366.549 273.828 366.543 273.828C360.69 268.382 356.737 264.526 355.117 262.383C353.497 260.239 354.029 261.365 354.141 260.82C354.365 259.731 361.39 249.597 375.684 230.508C384.372 218.889 390.47 210.166 394.492 202.91C398.514 195.655 401.414 189.371 399.395 181.68C399.388 181.667 399.382 181.654 399.375 181.641C398.479 178.264 396.03 175.152 393.516 173.457C391.001 171.762 388.617 171.099 386.484 170.684C382.218 169.854 378.496 170 375.039 170C367.791 170 335.635 170.254 332.988 170.254C329.861 170.254 324.69 171.676 322.402 173.047C316.651 176.508 315 181.055 315 181.055C314.896 181.247 314.798 181.442 314.707 181.641C314.707 181.641 308.074 196.35 299.531 210.879C290.878 225.616 284.484 232.645 280.625 235.898C280.519 235.32 280.537 235.79 280.469 234.98C280.123 230.865 280.508 225.178 280.508 219.629C280.508 204.684 281.775 194.224 281.094 184.98C280.753 180.359 279.897 175.593 276.855 171.211C273.814 166.829 268.752 163.982 263.75 162.773C260.748 162.049 257.327 160.166 244.941 160.039C244.935 160.039 244.928 160.039 244.922 160.039C241.134 160.001 237.49 159.93 233.965 159.922ZM244.727 180.039C255.686 180.152 252.956 180.755 259.043 182.227C260.931 182.683 260.473 182.68 260.43 182.617C260.386 182.554 260.94 183.585 261.152 186.465C261.577 192.224 260.508 203.674 260.508 219.629C260.508 223.98 259.983 230.188 260.527 236.66C261.071 243.132 262.677 251.438 270.41 256.445C274.076 258.822 278.333 258.971 281.973 258.066C285.613 257.161 288.915 255.277 292.383 252.5C299.318 246.947 307.054 237.575 316.777 221.016C325.865 205.559 332.476 190.84 332.695 190.352C332.738 190.317 332.782 190.293 332.832 190.254C332.957 190.255 332.828 190.254 332.988 190.254C336.722 190.254 368.287 190 375.039 190C376.615 190 377.189 190.095 378.438 190.137C378.098 191.269 378.475 190.547 376.992 193.223C373.881 198.835 368.149 207.175 359.668 218.516C345.732 237.127 337.094 244.42 334.551 256.777C333.279 262.956 335.662 269.805 339.16 274.434C342.658 279.062 347.073 283.027 352.93 288.477C363.775 298.576 370.138 305.913 373.789 310.684C375.615 313.069 376.765 314.792 377.48 315.957C378.196 317.122 378.019 316.999 378.945 318.535C379.555 319.557 379.33 318.933 379.434 319.238C378.235 319.576 376.782 319.983 376.699 320L339.922 319.844C339.259 319.843 338.599 319.909 337.949 320.039C337.949 320.039 338.041 320.147 336.074 319.844C334.107 319.54 330.978 318.689 326.953 315.918C322.096 312.58 315.295 304.412 308.633 296.992C305.302 293.282 301.979 289.719 297.852 286.816C293.724 283.914 287.547 281.184 280.879 283.281C273.957 285.455 268.568 290.857 265.938 296.66C263.979 300.98 263.82 305.492 263.516 309.98C263.184 310.005 263.566 309.98 263.145 309.98H246.426C223.709 309.98 207.579 311.552 185.176 287.012C155.041 253.998 127.431 199.07 122.93 190.02L157.617 190C158.227 190.234 159.532 190.724 159.609 190.781C159.622 190.794 159.635 190.807 159.648 190.82C158.38 189.894 159.707 191.191 159.707 191.191C159.829 191.491 159.966 191.784 160.117 192.07C160.117 192.07 166.99 205.498 175.684 220.566C184.211 235.338 190.425 244.566 196.426 250.664C199.426 253.713 202.455 256.158 206.504 257.539C210.552 258.92 215.78 258.413 219.297 256.484C226.481 252.552 227.446 246.751 228.613 241.68C229.782 236.601 230.247 231.191 230.469 226.016C230.899 215.97 230.29 207.275 230.254 206.738C230.256 206.55 230.302 202.924 229.727 198.281C229.138 193.527 228.481 187.714 224.18 181.855L224.16 181.836C224.13 181.795 224.093 181.798 224.062 181.758C229.75 180.942 234.617 179.938 244.727 180.039ZM332.949 189.844L332.812 190.156C332.791 190.168 332.798 190.142 332.773 190.156C332.816 190.076 332.949 189.844 332.949 189.844Z" fill="white"/>
</svg>
