<svg width="5424" height="735" viewBox="0 0 5424 735" fill="none" xmlns="http://www.w3.org/2000/svg">
<path d="M633.73 725H441.348L130.801 184.961H126.406C132.591 280.339 135.684 348.372 135.684 389.062V725H0.429688V11.1328H191.348L501.406 545.801H504.824C499.941 453.027 497.5 387.435 497.5 349.023V11.1328H633.73V725ZM1394.96 11.1328V473.047C1394.96 525.781 1383.08 572.005 1359.32 611.719C1335.88 651.432 1301.86 681.868 1257.27 703.027C1212.67 724.186 1159.93 734.766 1099.06 734.766C1007.27 734.766 935.977 711.328 885.195 664.453C834.414 617.253 809.023 552.799 809.023 471.094V11.1328H959.902V448.145C959.902 503.158 970.97 543.522 993.105 569.238C1015.24 594.954 1051.86 607.812 1102.97 607.812C1152.45 607.812 1188.26 594.954 1210.39 569.238C1232.85 543.197 1244.08 502.507 1244.08 447.168V11.1328H1394.96ZM2266.54 725L2214.79 555.078H1954.53L1902.77 725H1739.69L1991.64 8.20312H2176.7L2429.63 725H2266.54ZM2178.65 428.125C2130.8 274.154 2103.78 187.077 2097.6 166.895C2091.74 146.712 2087.51 130.762 2084.9 119.043C2074.16 160.71 2043.4 263.737 1992.62 428.125H2178.65ZM2823.18 126.855C2766.22 126.855 2722.11 148.34 2690.86 191.309C2659.61 233.952 2643.98 293.522 2643.98 370.02C2643.98 529.199 2703.72 608.789 2823.18 608.789C2873.31 608.789 2934.02 596.257 3005.31 571.191V698.145C2946.72 722.559 2881.29 734.766 2809.02 734.766C2705.18 734.766 2625.76 703.353 2570.74 640.527C2515.73 577.376 2488.22 486.882 2488.22 369.043C2488.22 294.824 2501.73 229.883 2528.75 174.219C2555.77 118.229 2594.51 75.4232 2644.96 45.8008C2695.74 15.8529 2755.15 0.878906 2823.18 0.878906C2892.52 0.878906 2962.18 17.6432 3032.17 51.1719L2983.34 174.219C2956.65 161.523 2929.79 150.456 2902.77 141.016C2875.76 131.576 2849.23 126.855 2823.18 126.855ZM3459.9 725L3288.03 164.941H3283.63C3289.82 278.874 3292.91 354.883 3292.91 392.969V725H3157.66V11.1328H3363.71L3532.66 557.031H3535.59L3714.79 11.1328H3920.84V725H3779.73V387.109C3779.73 371.159 3779.89 352.767 3780.21 331.934C3780.87 311.1 3783.14 255.762 3787.05 165.918H3782.66L3598.57 725H3459.9ZM4782.17 526.758C4782.17 591.211 4758.89 641.992 4712.34 679.102C4666.12 716.211 4601.67 734.766 4518.98 734.766C4442.81 734.766 4375.43 720.443 4316.84 691.797V551.172C4365.01 572.656 4405.7 587.793 4438.91 596.582C4472.43 605.371 4503.03 609.766 4530.7 609.766C4563.91 609.766 4589.3 603.418 4606.88 590.723C4624.78 578.027 4633.73 559.147 4633.73 534.082C4633.73 520.085 4629.82 507.715 4622.01 496.973C4614.2 485.905 4602.64 475.326 4587.34 465.234C4572.37 455.143 4541.61 439.03 4495.06 416.895C4451.44 396.387 4418.72 376.693 4396.91 357.812C4375.1 338.932 4357.69 316.96 4344.67 291.895C4331.65 266.829 4325.14 237.533 4325.14 204.004C4325.14 140.853 4346.46 91.2109 4389.1 55.0781C4432.07 18.9453 4491.32 0.878906 4566.84 0.878906C4603.95 0.878906 4639.26 5.27344 4672.79 14.0625C4706.65 22.8516 4741.97 35.2214 4778.75 51.1719L4729.92 168.848C4691.84 153.223 4660.26 142.318 4635.2 136.133C4610.46 129.948 4586.04 126.855 4561.95 126.855C4533.31 126.855 4511.33 133.529 4496.04 146.875C4480.74 160.221 4473.09 177.637 4473.09 199.121C4473.09 212.467 4476.18 224.186 4482.36 234.277C4488.55 244.043 4498.31 253.646 4511.66 263.086C4525.33 272.201 4557.4 288.802 4607.85 312.891C4674.58 344.792 4720.32 376.855 4745.06 409.082C4769.8 440.983 4782.17 480.208 4782.17 526.758ZM5214.79 126.855C5157.82 126.855 5113.71 148.34 5082.46 191.309C5051.21 233.952 5035.59 293.522 5035.59 370.02C5035.59 529.199 5095.32 608.789 5214.79 608.789C5264.92 608.789 5325.62 596.257 5396.91 571.191V698.145C5338.32 722.559 5272.89 734.766 5200.62 734.766C5096.78 734.766 5017.36 703.353 4962.34 640.527C4907.33 577.376 4879.82 486.882 4879.82 369.043C4879.82 294.824 4893.33 229.883 4920.35 174.219C4947.37 118.229 4986.11 75.4232 5036.56 45.8008C5087.34 15.8529 5146.75 0.878906 5214.79 0.878906C5284.12 0.878906 5353.78 17.6432 5423.77 51.1719L5374.94 174.219C5348.25 161.523 5321.39 150.456 5294.38 141.016C5267.36 131.576 5240.83 126.855 5214.79 126.855Z" fill="white"/>
</svg>
