<svg xmlns="http://www.w3.org/2000/svg" width="261" height="460" fill="none" viewBox="0 0 261 460"><path fill="#fff" d="M200 90H250C255.52 90 260 85.52 260 80V12.63C260 7.39 255.97 3.03 250.75 2.66C234.84 1.53 203.76 0 181.41 0C120 0 80 36.8 80 103.68V170H10C4.48 170 0 174.48 0 180V250C0 255.52 4.48 260 10 260H80V450C80 455.52 84.48 460 90 460H160C165.52 460 170 455.52 170 450V260H242.22C247.32 260 251.6 256.17 252.16 251.1L259.94 181.1C260.6 175.18 255.96 170 250 170H170V120C170 103.43 183.43 90 200 90Z"/></svg>