<svg xmlns="http://www.w3.org/2000/svg" width="192" height="190" fill="none" viewBox="0 0 192 190"><path fill="#fff" d="M96 0C42.984 0 0 42.984 0 96C0 140.984 30.976 178.624 72.736 189.04C72.288 187.744 72 186.24 72 184.376V167.968C68.104 167.968 61.576 167.968 59.936 167.968C53.368 167.968 47.528 165.144 44.696 159.896C41.552 154.064 41.008 145.144 33.216 139.688C30.904 137.872 32.664 135.8 35.328 136.08C40.248 137.472 44.328 140.848 48.168 145.856C51.992 150.872 53.792 152.008 60.936 152.008C64.4 152.008 69.584 151.808 74.464 151.04C77.088 144.376 81.624 138.24 87.168 135.344C55.2 132.056 39.944 116.152 39.944 94.56C39.944 85.264 43.904 76.272 50.632 68.696C48.424 61.176 45.648 45.84 51.48 40C65.864 40 74.56 49.328 76.648 51.848C83.816 49.392 91.688 48 99.96 48C108.248 48 116.152 49.392 123.336 51.864C125.4 49.36 134.104 40 148.52 40C154.376 45.848 151.568 61.248 149.336 68.752C156.024 76.312 159.96 85.28 159.96 94.56C159.96 116.136 144.728 132.032 112.808 135.336C121.592 139.92 128 152.8 128 162.504V184.376C128 185.208 127.816 185.808 127.72 186.52C165.128 173.408 192 137.888 192 96C192 42.984 149.016 0 96 0Z"/></svg>