<svg xmlns="http://www.w3.org/2000/svg" width="512" height="512" fill="none" viewBox="0 0 512 512"><path fill="#fff" d="M120 256C120 230.633 126.989 206.87 139.131 186.523V100.215H52.823C18.568 144.703 0 198.922 0 256C0 313.078 18.568 367.297 52.823 411.785H139.131V325.477C126.989 305.13 120 281.367 120 256V256Z"/><path fill="#fff" d="M256 392L196 452L256 512C313.079 512 367.297 493.432 411.785 459.177V372.961H325.569C305.044 385.147 281.181 392 256 392V392Z"/><path fill="#fff" d="M139.131 325.477L52.8232 411.785C59.6052 420.593 66.9902 429.028 74.9812 437.02C123.333 485.371 187.62 512 256 512V392C206.376 392 162.883 365.28 139.131 325.477Z"/><path fill="#fff" d="M512 256C512 240.425 510.59 224.821 507.808 209.623L505.557 197.324H256V317.324H377.452C365.658 340.785 347.524 359.926 325.568 372.962L411.784 459.178C420.592 452.396 429.027 445.011 437.019 437.02C485.371 388.667 512 324.38 512 256V256Z"/><path fill="#fff" d="M352.167 159.833L362.773 170.439L447.626 85.587L437.02 74.981C388.668 26.629 324.381 0 256 0L196 60L256 120C292.326 120 326.479 134.146 352.167 159.833Z"/><path fill="#fff" d="M256 120V0C187.62 0 123.333 26.629 74.9798 74.98C66.9888 82.971 59.6038 91.406 52.8218 100.215L139.13 186.523C162.883 146.72 206.376 120 256 120V120Z"/></svg>