<svg width="500" height="500" viewBox="0 0 500 500" fill="none" xmlns="http://www.w3.org/2000/svg">
<path d="M160 30C88.3248 30 30 88.3248 30 160V340C30 411.675 88.3248 470 160 470H340C411.675 470 470 411.675 470 340V160C470 88.3248 411.675 30 340 30H160ZM160 50H340C400.865 50 450 99.1352 450 160V340C450 400.865 400.865 450 340 450H160C99.1352 450 50 400.865 50 340V160C50 99.1352 99.1352 50 160 50ZM370 110C364.696 110 359.609 112.107 355.858 115.858C352.107 119.609 350 124.696 350 130C350 135.304 352.107 140.391 355.858 144.142C359.609 147.893 364.696 150 370 150C375.304 150 380.391 147.893 384.142 144.142C387.893 140.391 390 135.304 390 130C390 124.696 387.893 119.609 384.142 115.858C380.391 112.107 375.304 110 370 110ZM250 140C189.367 140 140 189.367 140 250C140 310.633 189.367 360 250 360C310.633 360 360 310.633 360 250C360 189.367 310.633 140 250 140ZM250 160C299.824 160 340 200.176 340 250C340 299.824 299.824 340 250 340C200.176 340 160 299.824 160 250C160 200.176 200.176 160 250 160Z" fill="white"/>
</svg>
