<svg xmlns="http://www.w3.org/2000/svg" width="240" height="240" fill="none" viewBox="0 0 240 240"><path fill="#fff" d="M48 32C39.16 32 32 39.16 32 48V96C32 104.84 39.16 112 48 112H96C104.84 112 112 104.84 112 96V48C112 39.16 104.84 32 96 32H48ZM144 32C135.16 32 128 39.16 128 48V96C128 104.84 135.16 112 144 112H192C200.84 112 208 104.84 208 96V48C208 39.16 200.84 32 192 32H144ZM48 128C39.16 128 32 135.16 32 144V192C32 200.84 39.16 208 48 208H96C104.84 208 112 200.84 112 192V144C112 135.16 104.84 128 96 128H48ZM144 128C135.16 128 128 135.16 128 144V192C128 200.84 135.16 208 144 208H192C200.84 208 208 200.84 208 192V144C208 135.16 200.84 128 192 128H144Z"/></svg>