<svg xmlns="http://www.w3.org/2000/svg" width="891" height="541" fill="none" viewBox="0 0 891 541"><path fill="#fff" d="M242.117 1.62125C158.371 11.1378 86.5214 55.0726 41.6349 124.068C24.5051 150.238 9.75447 186.718 3.09288 219.55C-1.03096 240.011 -1.03096 300.6 3.09288 321.06C20.0641 404.965 72.881 474.118 147.745 511.233C179.149 526.777 208.175 535.183 244.02 538.99C254.013 540.1 325.546 540.734 446.565 540.734C604.539 540.734 636.579 540.417 652.439 538.355C718.262 529.79 771.872 503.303 816.283 457.147C836.585 436.052 849.591 417.971 862.28 393.228C882.74 353.1 891.305 316.778 891.305 270.305C891.305 223.833 882.74 187.511 862.28 147.383C849.591 122.64 836.585 104.559 816.283 83.4637C771.872 37.3083 718.262 10.8206 652.439 2.25569C636.579 0.193765 605.174 -0.123454 443.868 0.0351557C339.503 0.193765 248.62 0.828202 242.117 1.62125ZM641.654 184.339C673.693 193.063 699.864 218.282 707.635 248.1C710.649 260.154 710.649 280.456 707.635 292.511C699.705 322.805 673.376 348.024 640.861 356.272C630.71 358.968 616.594 359.127 445.137 359.127C272.729 359.127 259.723 358.968 250.048 356.272C218.484 347.707 196.755 328.832 185.494 300.283C181.687 290.449 181.211 287.277 181.211 270.305C181.211 253.334 181.687 250.162 185.494 240.328C198.024 208.448 224.829 187.67 260.357 182.436C265.591 181.643 351.24 181.167 450.688 181.326C616.594 181.643 632.296 181.801 641.654 184.339Z"/></svg>