<svg xmlns="http://www.w3.org/2000/svg" xmlns:svg="http://www.w3.org/2000/svg" id="svg8489" width="300" height="299.972" version="1.1"><defs id="defs8491"><clipPath id="clip8"><path id="path2126" d="M 36,788.34766 56.878906,809.21484 77.746094,788.34766 56.878906,767.47266 Z"/></clipPath><linearGradient id="linear4" x1="0" x2="1" y1="0" y2="0" gradientTransform="matrix(0,-41.743835,41.743835,0,32.893616,809.21667)" gradientUnits="userSpaceOnUse"><stop id="stop2129" offset="0" style="stop-color:#3792c1;stop-opacity:1"/><stop id="stop2131" offset=".016" style="stop-color:#3792c1;stop-opacity:1"/><stop id="stop2133" offset=".031" style="stop-color:#3893c2;stop-opacity:1"/><stop id="stop2135" offset=".047" style="stop-color:#3993c3;stop-opacity:1"/><stop id="stop2137" offset=".063" style="stop-color:#3a94c3;stop-opacity:1"/><stop id="stop2139" offset=".078" style="stop-color:#3b95c4;stop-opacity:1"/><stop id="stop2141" offset=".094" style="stop-color:#3c96c5;stop-opacity:1"/><stop id="stop2143" offset=".109" style="stop-color:#3d96c5;stop-opacity:1"/><stop id="stop2145" offset=".125" style="stop-color:#3e97c6;stop-opacity:1"/><stop id="stop2147" offset=".141" style="stop-color:#3f98c7;stop-opacity:1"/><stop id="stop2149" offset=".156" style="stop-color:#4099c7;stop-opacity:1"/><stop id="stop2151" offset=".172" style="stop-color:#4199c8;stop-opacity:1"/><stop id="stop2153" offset=".188" style="stop-color:#429ac9;stop-opacity:1"/><stop id="stop2155" offset=".203" style="stop-color:#439bc9;stop-opacity:1"/><stop id="stop2157" offset=".219" style="stop-color:#449cca;stop-opacity:1"/><stop id="stop2159" offset=".234" style="stop-color:#459ccb;stop-opacity:1"/><stop id="stop2161" offset=".25" style="stop-color:#469dcb;stop-opacity:1"/><stop id="stop2163" offset=".266" style="stop-color:#489ecc;stop-opacity:1"/><stop id="stop2165" offset=".281" style="stop-color:#499ecd;stop-opacity:1"/><stop id="stop2167" offset=".297" style="stop-color:#4a9fcd;stop-opacity:1"/><stop id="stop2169" offset=".313" style="stop-color:#4ba0ce;stop-opacity:1"/><stop id="stop2171" offset=".328" style="stop-color:#4ca1cf;stop-opacity:1"/><stop id="stop2173" offset=".344" style="stop-color:#4da2cf;stop-opacity:1"/><stop id="stop2175" offset=".359" style="stop-color:#4ea2d0;stop-opacity:1"/><stop id="stop2177" offset=".375" style="stop-color:#4fa3d1;stop-opacity:1"/><stop id="stop2179" offset=".391" style="stop-color:#50a4d1;stop-opacity:1"/><stop id="stop2181" offset=".406" style="stop-color:#51a5d2;stop-opacity:1"/><stop id="stop2183" offset=".414" style="stop-color:#52a5d3;stop-opacity:1"/><stop id="stop2185" offset=".422" style="stop-color:#53a6d3;stop-opacity:1"/><stop id="stop2187" offset=".438" style="stop-color:#54a6d4;stop-opacity:1"/><stop id="stop2189" offset=".445" style="stop-color:#54a7d4;stop-opacity:1"/><stop id="stop2191" offset=".453" style="stop-color:#55a7d4;stop-opacity:1"/><stop id="stop2193" offset=".461" style="stop-color:#56a7d5;stop-opacity:1"/><stop id="stop2195" offset=".469" style="stop-color:#56a8d5;stop-opacity:1"/><stop id="stop2197" offset=".477" style="stop-color:#57a8d5;stop-opacity:1"/><stop id="stop2199" offset=".484" style="stop-color:#57a9d6;stop-opacity:1"/><stop id="stop2201" offset=".492" style="stop-color:#58a9d6;stop-opacity:1"/><stop id="stop2203" offset=".5" style="stop-color:#58a9d6;stop-opacity:1"/><stop id="stop2205" offset=".508" style="stop-color:#59aad7;stop-opacity:1"/><stop id="stop2207" offset=".516" style="stop-color:#5aaad7;stop-opacity:1"/><stop id="stop2209" offset=".523" style="stop-color:#5aabd7;stop-opacity:1"/><stop id="stop2211" offset=".531" style="stop-color:#5babd8;stop-opacity:1"/><stop id="stop2213" offset=".539" style="stop-color:#5babd8;stop-opacity:1"/><stop id="stop2215" offset=".547" style="stop-color:#5cacd9;stop-opacity:1"/><stop id="stop2217" offset=".555" style="stop-color:#5dacd9;stop-opacity:1"/><stop id="stop2219" offset=".563" style="stop-color:#5dadd9;stop-opacity:1"/><stop id="stop2221" offset=".57" style="stop-color:#5eadda;stop-opacity:1"/><stop id="stop2223" offset=".578" style="stop-color:#5eadda;stop-opacity:1"/><stop id="stop2225" offset=".586" style="stop-color:#5faeda;stop-opacity:1"/><stop id="stop2227" offset=".594" style="stop-color:#60aedb;stop-opacity:1"/><stop id="stop2229" offset=".602" style="stop-color:#60aedb;stop-opacity:1"/><stop id="stop2231" offset=".609" style="stop-color:#61afdb;stop-opacity:1"/><stop id="stop2233" offset=".617" style="stop-color:#61afdc;stop-opacity:1"/><stop id="stop2235" offset=".625" style="stop-color:#62b0dc;stop-opacity:1"/><stop id="stop2237" offset=".633" style="stop-color:#63b0dc;stop-opacity:1"/><stop id="stop2239" offset=".641" style="stop-color:#63b0dd;stop-opacity:1"/><stop id="stop2241" offset=".648" style="stop-color:#64b1dd;stop-opacity:1"/><stop id="stop2243" offset=".656" style="stop-color:#64b1dd;stop-opacity:1"/><stop id="stop2245" offset=".664" style="stop-color:#65b2de;stop-opacity:1"/><stop id="stop2247" offset=".672" style="stop-color:#66b2de;stop-opacity:1"/><stop id="stop2249" offset=".68" style="stop-color:#66b2de;stop-opacity:1"/><stop id="stop2251" offset=".688" style="stop-color:#67b3df;stop-opacity:1"/><stop id="stop2253" offset=".695" style="stop-color:#67b3df;stop-opacity:1"/><stop id="stop2255" offset=".703" style="stop-color:#68b4df;stop-opacity:1"/><stop id="stop2257" offset=".711" style="stop-color:#69b4e0;stop-opacity:1"/><stop id="stop2259" offset=".719" style="stop-color:#69b4e0;stop-opacity:1"/><stop id="stop2261" offset=".727" style="stop-color:#6ab5e1;stop-opacity:1"/><stop id="stop2263" offset=".734" style="stop-color:#6bb5e1;stop-opacity:1"/><stop id="stop2265" offset=".742" style="stop-color:#6bb6e1;stop-opacity:1"/><stop id="stop2267" offset=".75" style="stop-color:#6cb6e2;stop-opacity:1"/><stop id="stop2269" offset=".758" style="stop-color:#6cb6e2;stop-opacity:1"/><stop id="stop2271" offset=".766" style="stop-color:#6db7e2;stop-opacity:1"/><stop id="stop2273" offset=".773" style="stop-color:#6eb7e3;stop-opacity:1"/><stop id="stop2275" offset=".781" style="stop-color:#6eb8e3;stop-opacity:1"/><stop id="stop2277" offset=".789" style="stop-color:#6fb8e3;stop-opacity:1"/><stop id="stop2279" offset=".797" style="stop-color:#70b8e4;stop-opacity:1"/><stop id="stop2281" offset=".805" style="stop-color:#70b9e4;stop-opacity:1"/><stop id="stop2283" offset=".813" style="stop-color:#71b9e4;stop-opacity:1"/><stop id="stop2285" offset=".82" style="stop-color:#71bae5;stop-opacity:1"/><stop id="stop2287" offset=".828" style="stop-color:#72bae5;stop-opacity:1"/><stop id="stop2289" offset=".836" style="stop-color:#73bae5;stop-opacity:1"/><stop id="stop2291" offset=".844" style="stop-color:#73bbe6;stop-opacity:1"/><stop id="stop2293" offset=".852" style="stop-color:#74bbe6;stop-opacity:1"/><stop id="stop2295" offset=".859" style="stop-color:#75bce6;stop-opacity:1"/><stop id="stop2297" offset=".867" style="stop-color:#75bce7;stop-opacity:1"/><stop id="stop2299" offset=".875" style="stop-color:#76bde7;stop-opacity:1"/><stop id="stop2301" offset=".883" style="stop-color:#77bde8;stop-opacity:1"/><stop id="stop2303" offset=".891" style="stop-color:#77bde8;stop-opacity:1"/><stop id="stop2305" offset=".898" style="stop-color:#78bee8;stop-opacity:1"/><stop id="stop2307" offset=".906" style="stop-color:#79bee9;stop-opacity:1"/><stop id="stop2309" offset=".914" style="stop-color:#79bfe9;stop-opacity:1"/><stop id="stop2311" offset=".922" style="stop-color:#7abfe9;stop-opacity:1"/><stop id="stop2313" offset=".93" style="stop-color:#7bbfea;stop-opacity:1"/><stop id="stop2315" offset=".938" style="stop-color:#7bc0ea;stop-opacity:1"/><stop id="stop2317" offset=".945" style="stop-color:#7cc0ea;stop-opacity:1"/><stop id="stop2319" offset=".953" style="stop-color:#7dc1eb;stop-opacity:1"/><stop id="stop2321" offset=".961" style="stop-color:#7dc1eb;stop-opacity:1"/><stop id="stop2323" offset=".969" style="stop-color:#7ec1eb;stop-opacity:1"/><stop id="stop2325" offset=".977" style="stop-color:#7fc2ec;stop-opacity:1"/><stop id="stop2327" offset=".984" style="stop-color:#7fc2ec;stop-opacity:1"/><stop id="stop2329" offset=".992" style="stop-color:#80c3ed;stop-opacity:1"/><stop id="stop2331" offset="1" style="stop-color:#81c3ed;stop-opacity:1"/></linearGradient><clipPath id="clip9"><path id="path2334" d="m 45.355469,788.34766 c 0,6.35937 5.15625,11.51562 11.523437,11.51562 6.359375,0 11.511719,-5.15625 11.511719,-11.51562 0,-6.36719 -5.152344,-11.51954 -11.511719,-11.51954 -6.367187,0 -11.523437,5.15235 -11.523437,11.51954"/></clipPath><linearGradient id="linear5" x1="-.017" x2="1" y1="0" y2="0" gradientTransform="matrix(0,22.65625,-22.65625,0,71.496887,777.20938)" gradientUnits="userSpaceOnUse"><stop id="stop2337" offset=".017" style="stop-color:#3792c1;stop-opacity:1"/><stop id="stop2339" offset=".031" style="stop-color:#3792c1;stop-opacity:1"/><stop id="stop2341" offset=".039" style="stop-color:#3792c1;stop-opacity:1"/><stop id="stop2343" offset=".043" style="stop-color:#3893c2;stop-opacity:1"/><stop id="stop2345" offset=".047" style="stop-color:#3993c2;stop-opacity:1"/><stop id="stop2347" offset=".055" style="stop-color:#3993c3;stop-opacity:1"/><stop id="stop2349" offset=".063" style="stop-color:#3a94c3;stop-opacity:1"/><stop id="stop2351" offset=".07" style="stop-color:#3b95c4;stop-opacity:1"/><stop id="stop2353" offset=".078" style="stop-color:#3c96c5;stop-opacity:1"/><stop id="stop2355" offset=".086" style="stop-color:#3d96c5;stop-opacity:1"/><stop id="stop2357" offset=".094" style="stop-color:#3e97c6;stop-opacity:1"/><stop id="stop2359" offset=".102" style="stop-color:#3f98c7;stop-opacity:1"/><stop id="stop2361" offset=".109" style="stop-color:#4098c7;stop-opacity:1"/><stop id="stop2363" offset=".117" style="stop-color:#4199c8;stop-opacity:1"/><stop id="stop2365" offset=".125" style="stop-color:#429ac8;stop-opacity:1"/><stop id="stop2367" offset=".133" style="stop-color:#439bc9;stop-opacity:1"/><stop id="stop2369" offset=".141" style="stop-color:#449bca;stop-opacity:1"/><stop id="stop2371" offset=".148" style="stop-color:#459cca;stop-opacity:1"/><stop id="stop2373" offset=".156" style="stop-color:#469dcb;stop-opacity:1"/><stop id="stop2375" offset=".164" style="stop-color:#479dcc;stop-opacity:1"/><stop id="stop2377" offset=".172" style="stop-color:#489ecc;stop-opacity:1"/><stop id="stop2379" offset=".18" style="stop-color:#499fcd;stop-opacity:1"/><stop id="stop2381" offset=".188" style="stop-color:#4a9fcd;stop-opacity:1"/><stop id="stop2383" offset=".195" style="stop-color:#4aa0ce;stop-opacity:1"/><stop id="stop2385" offset=".203" style="stop-color:#4ba0ce;stop-opacity:1"/><stop id="stop2387" offset=".211" style="stop-color:#4ca1cf;stop-opacity:1"/><stop id="stop2389" offset=".219" style="stop-color:#4da2d0;stop-opacity:1"/><stop id="stop2391" offset=".227" style="stop-color:#4ea2d0;stop-opacity:1"/><stop id="stop2393" offset=".234" style="stop-color:#4fa3d1;stop-opacity:1"/><stop id="stop2395" offset=".242" style="stop-color:#50a4d1;stop-opacity:1"/><stop id="stop2397" offset=".25" style="stop-color:#51a4d2;stop-opacity:1"/><stop id="stop2399" offset=".258" style="stop-color:#52a5d2;stop-opacity:1"/><stop id="stop2401" offset=".266" style="stop-color:#53a5d3;stop-opacity:1"/><stop id="stop2403" offset=".273" style="stop-color:#54a6d3;stop-opacity:1"/><stop id="stop2405" offset=".281" style="stop-color:#54a7d4;stop-opacity:1"/><stop id="stop2407" offset=".289" style="stop-color:#55a7d5;stop-opacity:1"/><stop id="stop2409" offset=".297" style="stop-color:#56a8d5;stop-opacity:1"/><stop id="stop2411" offset=".305" style="stop-color:#57a8d6;stop-opacity:1"/><stop id="stop2413" offset=".313" style="stop-color:#58a9d6;stop-opacity:1"/><stop id="stop2415" offset=".32" style="stop-color:#59a9d7;stop-opacity:1"/><stop id="stop2417" offset=".328" style="stop-color:#59aad7;stop-opacity:1"/><stop id="stop2419" offset=".336" style="stop-color:#5aabd8;stop-opacity:1"/><stop id="stop2421" offset=".344" style="stop-color:#5babd8;stop-opacity:1"/><stop id="stop2423" offset=".352" style="stop-color:#5cacd8;stop-opacity:1"/><stop id="stop2425" offset=".359" style="stop-color:#5dacd9;stop-opacity:1"/><stop id="stop2427" offset=".367" style="stop-color:#5eadd9;stop-opacity:1"/><stop id="stop2429" offset=".375" style="stop-color:#5eadda;stop-opacity:1"/><stop id="stop2431" offset=".383" style="stop-color:#5faeda;stop-opacity:1"/><stop id="stop2433" offset=".391" style="stop-color:#60aedb;stop-opacity:1"/><stop id="stop2435" offset=".398" style="stop-color:#61afdb;stop-opacity:1"/><stop id="stop2437" offset=".406" style="stop-color:#61afdc;stop-opacity:1"/><stop id="stop2439" offset=".414" style="stop-color:#62b0dc;stop-opacity:1"/><stop id="stop2441" offset=".422" style="stop-color:#63b0dd;stop-opacity:1"/><stop id="stop2443" offset=".43" style="stop-color:#64b1dd;stop-opacity:1"/><stop id="stop2445" offset=".438" style="stop-color:#64b1dd;stop-opacity:1"/><stop id="stop2447" offset=".445" style="stop-color:#65b2de;stop-opacity:1"/><stop id="stop2449" offset=".453" style="stop-color:#66b2de;stop-opacity:1"/><stop id="stop2451" offset=".461" style="stop-color:#67b3df;stop-opacity:1"/><stop id="stop2453" offset=".469" style="stop-color:#67b3df;stop-opacity:1"/><stop id="stop2455" offset=".477" style="stop-color:#68b4df;stop-opacity:1"/><stop id="stop2457" offset=".484" style="stop-color:#69b4e0;stop-opacity:1"/><stop id="stop2459" offset=".492" style="stop-color:#69b4e0;stop-opacity:1"/><stop id="stop2461" offset=".5" style="stop-color:#6ab5e1;stop-opacity:1"/><stop id="stop2463" offset=".508" style="stop-color:#6bb5e1;stop-opacity:1"/><stop id="stop2465" offset=".516" style="stop-color:#6bb6e1;stop-opacity:1"/><stop id="stop2467" offset=".523" style="stop-color:#6cb6e2;stop-opacity:1"/><stop id="stop2469" offset=".531" style="stop-color:#6db7e2;stop-opacity:1"/><stop id="stop2471" offset=".547" style="stop-color:#6eb7e3;stop-opacity:1"/><stop id="stop2473" offset=".563" style="stop-color:#6fb8e3;stop-opacity:1"/><stop id="stop2475" offset=".578" style="stop-color:#70b9e4;stop-opacity:1"/><stop id="stop2477" offset=".594" style="stop-color:#71b9e5;stop-opacity:1"/><stop id="stop2479" offset=".609" style="stop-color:#72bae5;stop-opacity:1"/><stop id="stop2481" offset=".625" style="stop-color:#73bbe6;stop-opacity:1"/><stop id="stop2483" offset=".641" style="stop-color:#74bce6;stop-opacity:1"/><stop id="stop2485" offset=".656" style="stop-color:#75bce7;stop-opacity:1"/><stop id="stop2487" offset=".672" style="stop-color:#76bde7;stop-opacity:1"/><stop id="stop2489" offset=".688" style="stop-color:#77bde8;stop-opacity:1"/><stop id="stop2491" offset=".703" style="stop-color:#78bee8;stop-opacity:1"/><stop id="stop2493" offset=".719" style="stop-color:#79bee9;stop-opacity:1"/><stop id="stop2495" offset=".734" style="stop-color:#7abfe9;stop-opacity:1"/><stop id="stop2497" offset=".75" style="stop-color:#7bbfea;stop-opacity:1"/><stop id="stop2499" offset=".766" style="stop-color:#7bc0ea;stop-opacity:1"/><stop id="stop2501" offset=".781" style="stop-color:#7cc0ea;stop-opacity:1"/><stop id="stop2503" offset=".813" style="stop-color:#7dc1eb;stop-opacity:1"/><stop id="stop2505" offset=".844" style="stop-color:#7ec2eb;stop-opacity:1"/><stop id="stop2507" offset=".875" style="stop-color:#7fc2ec;stop-opacity:1"/><stop id="stop2509" offset=".938" style="stop-color:#80c3ed;stop-opacity:1"/><stop id="stop2511" offset="1" style="stop-color:#81c3ed;stop-opacity:1"/></linearGradient></defs><metadata id="metadata8494"/><g id="layer1" transform="translate(-348.90869,-258.47922)"><g id="g8264" transform="matrix(7.1863011,0,0,7.1863011,90.201851,-5256.8104)"><g id="g7014" clip-path="url(#clip8)" style="clip-rule:nonzero"><path id="path7016" d="m 36,809.21484 41.746094,0 0,-41.74218 L 36,767.47266 Z" style="fill:url(#linear4);fill-rule:nonzero;stroke:none"/></g><path id="path7018" d="m 69.667969,788.34766 c 0,7.0664 -5.722656,12.79296 -12.792969,12.79296 -7.066406,0 -12.796875,-5.72656 -12.796875,-12.79296 0,-7.07032 5.730469,-12.80079 12.796875,-12.80079 7.070313,0 12.792969,5.73047 12.792969,12.80079" style="fill:#fff;fill-opacity:1;fill-rule:nonzero;stroke:none"/><g id="g7020" clip-path="url(#clip9)" style="clip-rule:nonzero"><path id="path7022" d="m 68.390625,776.82812 -23.035156,0 0,23.03516 L 68.390625,799.86328 Z" style="fill:url(#linear5);fill-rule:nonzero;stroke:none"/></g><path id="path7024" d="m 50.167969,790.58984 c -0.117188,0.0937 -0.222656,0.17969 -0.320313,0.26172 -0.08984,0.082 -0.210937,0.15235 -0.371093,0.23438 -0.15625,0.082 -0.300782,0.14062 -0.453125,0.17187 -0.144532,0.043 -0.347657,0.0625 -0.613282,0.0625 -0.488281,0 -0.894531,-0.17187 -1.214843,-0.49609 -0.324219,-0.33203 -0.488282,-0.73828 -0.488282,-1.24219 0,-0.41797 0.08203,-0.75 0.246094,-1 0.167969,-0.25391 0.402344,-0.45703 0.707031,-0.60547 0.3125,-0.14844 0.6875,-0.2539 1.117188,-0.3125 0.4375,-0.0547 0.902344,-0.10937 1.40625,-0.13672 l 0,-0.0351 c 0,-0.30078 -0.117188,-0.51563 -0.339844,-0.62891 -0.226562,-0.11719 -0.5625,-0.17578 -1.015625,-0.17578 -0.207031,0 -0.441406,0.0391 -0.714844,0.11719 -0.269531,0.0664 -0.535156,0.16797 -0.800781,0.28125 l -0.140625,0 0,-1.33985 c 0.171875,-0.0547 0.445313,-0.10937 0.828125,-0.17968 0.382813,-0.0703 0.765625,-0.10547 1.160156,-0.10547 0.953125,0 1.644532,0.16406 2.082032,0.47656 0.441406,0.32031 0.660156,0.80859 0.660156,1.45703 l 0,3.77734 L 50.167969,791.17187 z m 0,-0.86718 0,-1.15235 c -0.292969,0.0312 -0.527344,0.0586 -0.703125,0.082 -0.175781,0.0195 -0.355469,0.0547 -0.527344,0.1211 -0.152344,0.0508 -0.269531,0.1289 -0.347656,0.23828 -0.08594,0.10937 -0.132813,0.25 -0.132813,0.42187 0,0.25782 0.07422,0.4375 0.210938,0.53516 0.136719,0.0977 0.34375,0.14062 0.621094,0.14062 0.140625,0 0.296875,-0.0234 0.449218,-0.10156 0.164063,-0.0625 0.304688,-0.16406 0.429688,-0.28515" style="fill:#fff;fill-opacity:1;fill-rule:nonzero;stroke:none"/><path id="path7026" d="m 55.695313,791.32031 c -0.457032,0 -0.882813,-0.0625 -1.261719,-0.17578 -0.375,-0.11719 -0.703125,-0.29297 -0.984375,-0.53125 -0.28125,-0.24609 -0.496094,-0.54687 -0.652344,-0.90625 -0.15625,-0.36328 -0.230469,-0.79687 -0.230469,-1.28516 0,-0.53515 0.07813,-0.97656 0.25,-1.35546 0.167969,-0.3711 0.390625,-0.67579 0.683594,-0.91407 0.277344,-0.23047 0.601563,-0.40234 0.980469,-0.51172 0.371094,-0.11328 0.761719,-0.16796 1.167969,-0.16796 0.304687,0 0.617187,0.0391 0.917968,0.11328 0.308594,0.0664 0.613282,0.17968 0.921875,0.33593 l 0,1.48047 -0.222656,0 c -0.0625,-0.0664 -0.152344,-0.14062 -0.25,-0.21093 -0.105469,-0.0859 -0.207031,-0.15625 -0.328125,-0.21875 -0.125,-0.0781 -0.273437,-0.125 -0.421875,-0.17969 -0.164062,-0.0469 -0.339844,-0.0742 -0.535156,-0.0742 -0.441406,0 -0.785156,0.15234 -1.027344,0.46484 -0.238281,0.30469 -0.367187,0.71875 -0.367187,1.23828 0,0.55079 0.132812,0.96875 0.390625,1.24219 0.257812,0.26953 0.597656,0.40625 1.03125,0.40625 0.21875,0 0.414062,-0.0273 0.582031,-0.0703 0.160156,-0.0508 0.300781,-0.11328 0.414062,-0.17969 0.121094,-0.0703 0.222657,-0.13672 0.304688,-0.21484 0.08203,-0.0703 0.15625,-0.13672 0.207031,-0.19531 l 0.222656,0 0,1.47656 c -0.09766,0.043 -0.210937,0.0937 -0.34375,0.15234 -0.128906,0.0508 -0.253906,0.0977 -0.394531,0.13281 -0.164062,0.0547 -0.328125,0.0781 -0.472656,0.10547 -0.148438,0.0274 -0.339844,0.043 -0.582031,0.043" style="fill:#fff;fill-opacity:1;fill-rule:nonzero;stroke:none"/><path id="path7028" d="m 65.039063,791.17187 0,-2.77343 c 0,-0.26953 -0.0039,-0.4961 -0.01563,-0.6875 -0.01172,-0.1875 -0.04297,-0.34375 -0.09375,-0.46094 -0.04687,-0.12109 -0.128907,-0.20313 -0.230469,-0.25781 -0.101563,-0.0586 -0.25,-0.082 -0.433594,-0.082 -0.132812,0 -0.261719,0.0234 -0.394531,0.082 -0.128906,0.0586 -0.269531,0.14453 -0.421875,0.24609 l 0,3.93359 -1.730469,0 0,-2.77343 c 0,-0.26953 -0.0039,-0.4961 -0.01563,-0.6875 -0.01563,-0.1875 -0.03906,-0.34375 -0.08984,-0.46094 -0.05469,-0.12109 -0.128906,-0.20313 -0.230468,-0.25781 -0.109375,-0.0586 -0.253907,-0.082 -0.4375,-0.082 -0.144532,0 -0.28125,0.0312 -0.417969,0.0937 -0.136719,0.0703 -0.269531,0.14843 -0.394531,0.23437 l 0,3.93359 -1.730469,0 0,-5.54296 1.730469,0 0,0.61328 c 0.28125,-0.23828 0.550781,-0.42969 0.800781,-0.56641 0.246094,-0.13281 0.527344,-0.20312 0.84375,-0.20312 0.335937,0 0.636719,0.082 0.886719,0.24218 0.265625,0.16016 0.457031,0.39844 0.59375,0.72266 0.332031,-0.30859 0.648437,-0.54688 0.9375,-0.71484 0.296875,-0.16797 0.59375,-0.25 0.894531,-0.25 0.257812,0 0.488281,0.0469 0.695312,0.125 0.203125,0.0859 0.378907,0.21093 0.515625,0.37109 0.160157,0.17969 0.273438,0.39062 0.347657,0.63672 0.08203,0.24609 0.117187,0.5625 0.117187,0.96094 L 66.765625,791.17187 Z" style="fill:#fff;fill-opacity:1;fill-rule:nonzero;stroke:none"/></g></g></svg>